<svg width="14" height="14" viewBox="0 0 14 14" fill="none" xmlns="http://www.w3.org/2000/svg">
    <path d="M12.8334 2.83411C13.2936 2.37387 13.2936 1.62768 12.8334 1.16744C12.3731 0.707206 11.6269 0.707206 11.1667 1.16744L7.00004 5.33411L2.83338 1.16744C2.37314 0.707206 1.62695 0.707206 1.16671 1.16744C0.706474 1.62768 0.706474 2.37387 1.16671 2.83411L5.33338 7.00078L1.16671 11.1674C0.706474 11.6277 0.706474 12.3739 1.16671 12.8341C1.62695 13.2943 2.37314 13.2943 2.83338 12.8341L7.00004 8.66744L11.1667 12.8341C11.6269 13.2943 12.3731 13.2943 12.8334 12.8341C13.2936 12.3739 13.2936 11.6277 12.8334 11.1674L8.66671 7.00078L12.8334 2.83411Z"
          fill-rule="evenodd"
          clip-rule="evenodd"
          fill="black"/>
</svg>