<svg width="40" height="40" viewBox="0 0 40 40" fill="none" xmlns="http://www.w3.org/2000/svg">
<rect width="40" height="40" rx="20" fill="black"/>
<path fill-rule="evenodd" clip-rule="evenodd" d="M25.8333 15.8341C26.2936 15.3739 26.2936 14.6277 25.8333 14.1674C25.3731 13.7072 24.6269 13.7072 24.1667 14.1674L20 18.3341L15.8333 14.1674C15.3731 13.7072 14.6269 13.7072 14.1667 14.1674C13.7064 14.6277 13.7064 15.3739 14.1667 15.8341L18.3333 20.0008L14.1667 24.1674C13.7064 24.6277 13.7064 25.3739 14.1667 25.8341C14.6269 26.2943 15.3731 26.2943 15.8333 25.8341L20 21.6674L24.1667 25.8341C24.6269 26.2943 25.3731 26.2943 25.8333 25.8341C26.2936 25.3739 26.2936 24.6277 25.8333 24.1674L21.6666 20.0008L25.8333 15.8341Z" fill="white"/>
<path d="M25.8333 14.1674L25.303 14.6978V14.6978L25.8333 14.1674ZM25.8333 15.8341L25.303 15.3038V15.3038L25.8333 15.8341ZM24.1667 14.1674L24.697 14.6978L24.697 14.6978L24.1667 14.1674ZM20 18.3341L19.4697 18.8644C19.6103 19.0051 19.8011 19.0841 20 19.0841C20.1989 19.0841 20.3897 19.0051 20.5303 18.8644L20 18.3341ZM15.8333 14.1674L15.303 14.6978L15.303 14.6978L15.8333 14.1674ZM14.1667 14.1674L14.697 14.6978L14.697 14.6978L14.1667 14.1674ZM14.1667 15.8341L14.697 15.3038L14.697 15.3038L14.1667 15.8341ZM18.3333 20.0008L18.8636 20.5311C19.0043 20.3905 19.0833 20.1997 19.0833 20.0008C19.0833 19.8019 19.0043 19.6111 18.8636 19.4704L18.3333 20.0008ZM14.1667 24.1674L14.697 24.6978L14.697 24.6978L14.1667 24.1674ZM14.1667 25.8341L14.697 25.3038H14.697L14.1667 25.8341ZM15.8333 25.8341L15.303 25.3038H15.303L15.8333 25.8341ZM20 21.6674L20.5303 21.1371C20.3897 20.9965 20.1989 20.9174 20 20.9174C19.8011 20.9174 19.6103 20.9965 19.4697 21.1371L20 21.6674ZM24.1667 25.8341L24.697 25.3038L24.697 25.3038L24.1667 25.8341ZM25.8333 25.8341L25.303 25.3038L25.303 25.3038L25.8333 25.8341ZM25.8333 24.1674L25.303 24.6978L25.303 24.6978L25.8333 24.1674ZM21.6666 20.0008L21.1363 19.4704C20.9957 19.6111 20.9166 19.8019 20.9166 20.0008C20.9166 20.1997 20.9957 20.3905 21.1363 20.5311L21.6666 20.0008ZM25.303 14.6978C25.4703 14.8651 25.4703 15.1364 25.303 15.3038L26.3636 16.3644C27.1168 15.6113 27.1168 14.3902 26.3636 13.6371L25.303 14.6978ZM24.697 14.6978C24.8643 14.5304 25.1356 14.5304 25.303 14.6978L26.3636 13.6371C25.6105 12.884 24.3895 12.884 23.6363 13.6371L24.697 14.6978ZM20.5303 18.8644L24.697 14.6978L23.6363 13.6371L19.4697 17.8038L20.5303 18.8644ZM20.5303 17.8038L16.3636 13.6371L15.303 14.6978L19.4697 18.8644L20.5303 17.8038ZM16.3636 13.6371C15.6105 12.884 14.3894 12.884 13.6363 13.6371L14.697 14.6978C14.8643 14.5304 15.1356 14.5304 15.303 14.6978L16.3636 13.6371ZM13.6363 13.6371C12.8832 14.3902 12.8832 15.6113 13.6363 16.3644L14.697 15.3038C14.5296 15.1364 14.5296 14.8651 14.697 14.6978L13.6363 13.6371ZM13.6363 16.3644L17.803 20.5311L18.8636 19.4704L14.697 15.3038L13.6363 16.3644ZM14.697 24.6978L18.8636 20.5311L17.803 19.4704L13.6363 23.6371L14.697 24.6978ZM14.697 25.3038C14.5296 25.1364 14.5296 24.8651 14.697 24.6978L13.6363 23.6371C12.8832 24.3902 12.8832 25.6113 13.6363 26.3644L14.697 25.3038ZM15.303 25.3038C15.1356 25.4711 14.8643 25.4711 14.697 25.3038L13.6363 26.3644C14.3895 27.1176 15.6105 27.1176 16.3636 26.3644L15.303 25.3038ZM19.4697 21.1371L15.303 25.3038L16.3636 26.3644L20.5303 22.1978L19.4697 21.1371ZM19.4697 22.1978L23.6363 26.3644L24.697 25.3038L20.5303 21.1371L19.4697 22.1978ZM23.6363 26.3644C24.3895 27.1176 25.6105 27.1176 26.3636 26.3644L25.303 25.3038C25.1356 25.4711 24.8643 25.4711 24.697 25.3038L23.6363 26.3644ZM26.3636 26.3644C27.1168 25.6113 27.1168 24.3902 26.3636 23.6371L25.303 24.6978C25.4703 24.8651 25.4703 25.1364 25.303 25.3038L26.3636 26.3644ZM26.3636 23.6371L22.197 19.4704L21.1363 20.5311L25.303 24.6978L26.3636 23.6371ZM25.303 15.3038L21.1363 19.4704L22.197 20.5311L26.3636 16.3644L25.303 15.3038Z" fill="white"/>
</svg>
