<svg width="40" height="40" viewBox="0 0 40 40" fill="none" xmlns="http://www.w3.org/2000/svg">
<rect width="40" height="40" fill="#003623"/>
<path d="M15.8599 24.2371C18.0851 23.3118 21.8449 21.7261 21.8449 21.7261L30.5771 14.0045C30.6383 13.9503 30.5766 13.8521 30.5014 13.8842C30.0773 14.0655 29.401 14.3546 28.8497 14.5902C25.3472 16.0871 19.2272 18.7015 15.0679 20.4751L12.7999 21.4381V23.4541C12.7999 24.5521 12.8269 25.4611 12.8629 25.4521C12.9079 25.4521 14.2489 24.9031 15.8599 24.2371Z" fill="#CBF851"/>
<path d="M13.844 17.9451L16.607 16.7751L18.281 15.2901C19.199 14.4801 20.666 13.1841 21.53 12.4101C22.403 11.6451 23.546 10.6281 24.068 10.1601C24.599 9.69206 25.022 9.30506 25.004 9.28706C24.977 9.26006 24.401 9.50306 20.405 11.1771C19.163 11.6991 16.895 12.6441 15.365 13.2921C11.477 14.9211 8.06596 16.3611 7.80496 16.4781L7.57996 16.5771V18.5481C7.57996 20.3571 7.58896 20.5101 7.73296 20.5011C7.82296 20.4921 8.60596 20.1771 9.47896 19.7991C10.352 19.4211 12.314 18.5931 13.844 17.9451Z" fill="#CBF851"/>
<path d="M18.8299 17.8914C20.9809 16.9644 22.9249 16.1184 23.1499 16.0194C23.3749 15.9204 24.3109 15.1914 25.2379 14.3904L26.9299 12.9504V10.9254C26.9299 9.77339 26.8939 8.90039 26.8489 8.90039C26.7859 8.90039 25.1209 10.3134 24.9499 10.5204C24.9229 10.5474 23.7709 11.5824 22.3849 12.8154C16.4809 18.0714 15.7069 18.7734 15.2749 19.1784C15.0229 19.4124 14.8429 19.6014 14.8699 19.6014C14.8969 19.6014 16.6789 18.8274 18.8299 17.8914Z" fill="#CBF851"/>
<path d="M27.1136 23.1092C28.9136 21.3992 31.2986 19.4642 32.4686 18.1592C32.5586 16.6292 32.5586 15.8192 32.5586 14.9642C32.5586 14.1092 32.4828 13.7014 32.4681 13.6734C32.4461 13.6314 32.0636 13.9292 28.9586 16.7192C27.9822 17.5966 25.8951 19.3362 24.6836 20.4092C21.5336 23.1992 18.5966 25.9871 18.3836 26.1692L18.2 26.3233L18.2486 28.0897C18.2486 30.9058 18.2559 31.1439 18.3735 31.1299C18.4469 31.1159 19.4711 30.0876 20.1836 29.4992C20.896 28.9108 27.1136 23.1092 27.1136 23.1092Z" fill="#CBF851"/>
</svg>
