<svg width="140" height="26" viewBox="0 0 140 26" fill="none" xmlns="http://www.w3.org/2000/svg">
<path d="M123.665 13.0758C122.937 12.5883 122.135 12.2416 121.376 11.8083C120.884 11.5267 120.36 11.2775 119.932 10.92C119.206 10.3133 119.355 9.12165 120.115 8.60169C121.205 7.86507 123.011 8.27658 123.205 9.78253C123.205 9.81489 123.236 9.8367 123.268 9.8367H124.915C124.958 9.8367 124.991 9.8041 124.98 9.76084C124.894 8.7208 124.498 7.85416 123.771 7.30161C123.076 6.77087 122.284 6.48914 121.44 6.48914C117.088 6.48914 116.693 11.1583 119.034 12.6317C119.301 12.805 121.6 13.9749 122.413 14.4841C123.226 14.9933 123.483 15.925 123.129 16.6616C122.808 17.3333 121.974 17.7992 121.141 17.745C120.232 17.6907 119.526 17.1925 119.28 16.4125C119.237 16.2717 119.216 16.0008 119.216 15.8816C119.216 15.8491 119.184 15.8166 119.151 15.8166H117.366C117.335 15.8166 117.303 15.8491 117.303 15.8816C117.303 17.1925 117.624 17.9183 118.5 18.5792C119.322 19.2075 120.221 19.4675 121.152 19.4675C123.589 19.4675 124.851 18.0699 125.107 16.6183C125.332 15.1991 124.915 13.9208 123.665 13.0758Z" fill="black"></path>
<path d="M44.4791 6.72754C44.447 6.72754 44.4255 6.74911 44.4149 6.7708L42.9501 11.6675C42.9288 11.7325 42.8433 11.7325 42.8218 11.6675L41.357 6.7708C41.3464 6.73832 41.3249 6.72754 41.2928 6.72754H38.5664C38.5343 6.72754 38.5022 6.76001 38.5022 6.79249V19.2942C38.5022 19.3266 38.5343 19.3591 38.5664 19.3591H40.3519C40.384 19.3591 40.4161 19.3266 40.4161 19.2942V9.79325C40.4161 9.71751 40.5231 9.70673 40.5444 9.77168L42.0198 14.7008L42.1268 15.0475C42.1375 15.08 42.1589 15.0909 42.191 15.0909H43.5595C43.5916 15.0909 43.613 15.0691 43.6237 15.0475L43.7306 14.7008L45.2061 9.77168C45.2275 9.69582 45.3345 9.71751 45.3345 9.79325V19.2942C45.3345 19.3266 45.3666 19.3591 45.3985 19.3591H47.1842C47.2162 19.3591 47.2482 19.3266 47.2482 19.2942V6.79249C47.2482 6.76001 47.2162 6.72754 47.1842 6.72754H44.4791Z" fill="black"></path>
<path d="M96.3247 6.72754C96.2916 6.72754 96.2704 6.74911 96.2598 6.7708L94.7958 11.6675C94.7746 11.7325 94.6885 11.7325 94.6672 11.6675L93.2021 6.7708C93.1915 6.73832 93.1702 6.72754 93.1384 6.72754H90.4223C90.3902 6.72754 90.3582 6.76001 90.3582 6.79249V19.2942C90.3582 19.3266 90.3902 19.3591 90.4223 19.3591H92.2088C92.2407 19.3591 92.2725 19.3266 92.2725 19.2942V9.79325C92.2725 9.71751 92.3799 9.70673 92.4011 9.77168L93.8757 14.7008L93.983 15.0475C93.9937 15.08 94.0149 15.0909 94.0467 15.0909H95.4152C95.4482 15.0909 95.4694 15.0691 95.48 15.0475L95.5874 14.7008L97.062 9.77168C97.0844 9.69582 97.1906 9.71751 97.1906 9.79325V19.2942C97.1906 19.3266 97.2236 19.3591 97.2554 19.3591H99.0403C99.0721 19.3591 99.104 19.3266 99.104 19.2942V6.79249C99.104 6.76001 99.0721 6.72754 99.0403 6.72754H96.3247Z" fill="black"></path>
<path d="M73.2939 6.72754H64.8579C64.8258 6.72754 64.7937 6.76001 64.7937 6.79249V8.35249C64.7937 8.38496 64.8258 8.41744 64.8579 8.41744H68.1189V19.2942C68.1189 19.3266 68.1509 19.3591 68.183 19.3591H69.9685C70.0008 19.3591 70.0328 19.3266 70.0328 19.2942V8.41744H73.2939C73.326 8.41744 73.358 8.38496 73.358 8.35249V6.79249C73.358 6.76001 73.3366 6.72754 73.2939 6.72754Z" fill="black"></path>
<path fill-rule="evenodd" clip-rule="evenodd" d="M85.4505 19.359H83.8258C83.8045 19.359 83.7723 19.3373 83.7617 19.3157L82.7888 15.6648C82.7781 15.6432 82.7567 15.6215 82.7246 15.6215H79.1318C79.0997 15.6215 79.0783 15.6324 79.0676 15.6648L78.0947 19.3157C78.084 19.3373 78.0626 19.359 78.0305 19.359H76.4054C76.3625 19.359 76.3305 19.3157 76.3412 19.2724L79.6984 6.72734C79.7091 6.70577 79.7305 6.68408 79.7626 6.68408H82.0934C82.1255 6.68408 82.1468 6.69487 82.1575 6.72734L85.5146 19.2724C85.5254 19.3157 85.4933 19.359 85.4505 19.359ZM80.8639 8.94822L79.5594 13.8341C79.5488 13.8774 79.5808 13.9207 79.6236 13.9207H82.2325C82.2753 13.9207 82.3074 13.8774 82.2966 13.8341L80.9923 8.94822C80.9708 8.88327 80.8853 8.88327 80.8639 8.94822Z" fill="black"></path>
<path fill-rule="evenodd" clip-rule="evenodd" d="M113.164 19.359H111.54C111.507 19.359 111.486 19.3373 111.475 19.3157L110.503 15.6648C110.491 15.6432 110.47 15.6215 110.438 15.6215H106.846C106.814 15.6215 106.792 15.6324 106.781 15.6648L105.809 19.3157C105.799 19.3373 105.776 19.359 105.744 19.359H104.119C104.076 19.359 104.044 19.3157 104.055 19.2724L107.412 6.72734C107.423 6.70577 107.444 6.68408 107.476 6.68408H109.807C109.839 6.68408 109.86 6.69487 109.871 6.72734L113.228 19.2724C113.239 19.3157 113.207 19.359 113.164 19.359ZM108.578 8.94822L107.273 13.8341C107.263 13.8774 107.294 13.9207 107.337 13.9207H109.946C109.989 13.9207 110.021 13.8774 110.01 13.8341L108.705 8.94822C108.684 8.88327 108.599 8.88327 108.578 8.94822Z" fill="black"></path>
<path d="M54.4974 17.5067V13.6284C54.4974 13.5959 54.5295 13.5634 54.5616 13.5634H59.3194C59.3515 13.5634 59.3837 13.5308 59.3837 13.4984V11.9384C59.3837 11.9059 59.3515 11.8734 59.3194 11.8734H54.5616C54.5295 11.8734 54.4974 11.8408 54.4974 11.8083V8.49337C54.4974 8.4609 54.5295 8.4283 54.5616 8.4283H59.9716C60.0038 8.4283 60.0359 8.39583 60.0359 8.36335V6.80335C60.0359 6.77088 60.0038 6.7384 59.9716 6.7384H52.6477C52.6156 6.7384 52.5835 6.77088 52.5835 6.80335V19.2941C52.5835 19.3267 52.6156 19.3592 52.6477 19.3592H60.1962C60.2283 19.3592 60.2604 19.3267 60.2604 19.2941V17.6476C60.2604 17.615 60.2283 17.5825 60.1962 17.5825H54.5508C54.5187 17.5717 54.4974 17.5501 54.4974 17.5067Z" fill="black"></path>
<path d="M139.979 19.2509L133.8 12.7833C133.778 12.7617 133.778 12.7184 133.8 12.6968L139.36 6.84673C139.402 6.80335 139.371 6.7384 139.318 6.7384H137.04C137.018 6.7384 137.008 6.74919 136.997 6.76009L132.282 11.7217C132.24 11.7651 132.175 11.7325 132.175 11.6783V6.80335C132.175 6.77088 132.143 6.7384 132.111 6.7384H130.325C130.293 6.7384 130.261 6.77088 130.261 6.80335V19.305C130.261 19.3376 130.293 19.3701 130.325 19.3701H132.111C132.143 19.3701 132.175 19.3376 132.175 19.305V13.8018C132.175 13.7476 132.25 13.715 132.282 13.7584L137.627 19.3484C137.639 19.3592 137.66 19.3701 137.671 19.3701H139.947C139.99 19.3592 140.023 19.2833 139.979 19.2509Z" fill="black"></path>
<path fill-rule="evenodd" clip-rule="evenodd" d="M0.919551 8.65572L0 4.17082L1.36865 0L10.1681 3.33665H17.503L26.3024 0L15.9679 7.76787L15.9693 7.76919L26.3024 0L27.671 4.17082L26.7622 8.65572L27.3289 9.09995L26.4628 9.77162L27.1257 10.2917L26.2597 11.0933L26.805 11.4941L25.5539 12.9783L27.457 18.9366L25.6928 25.0249L19.5342 23.3023L18.3476 24.2991L15.9098 26H11.7507L9.3235 24.2991L8.1259 23.3023L1.97795 25.0249L0.224491 18.9366L2.11703 12.9783L0.866112 11.4941L1.41135 11.0933L0.54536 10.2917L1.20822 9.77162L0.331486 9.09995L0.919551 8.65572ZM15.3431 21.1248H12.3281L11.8146 21.4933L11.5258 23.9199L11.7934 23.6816H15.8775L16.1555 23.9199L15.8564 21.4932L15.3431 21.1248ZM11.6115 17.3766L10.7134 15.4591L8.55341 16.4666L11.6115 17.3766ZM19.1279 16.4665L16.9575 15.4591L16.0593 17.3766L19.1279 16.4665Z" fill="black"></path>
</svg>