<svg width="14" height="14" viewBox="0 0 14 14" fill="none" xmlns="http://www.w3.org/2000/svg">
<path d="M7 13C3.67692 13 1 10.3231 1 7C1 3.67692 3.67692 1 7 1C9.49231 1 11.6615 2.56923 12.4923 5.01538L11.6154 5.33846C10.9231 3.21538 9.12308 1.92308 7 1.92308C4.18462 1.92308 1.92308 4.18462 1.92308 7C1.92308 9.81538 4.18462 12.0769 7 12.0769C8.98462 12.0769 10.7846 10.9231 11.6154 9.12308L12.4462 9.49231C11.4769 11.6154 9.35385 13 7 13Z" fill="black" stroke="black" stroke-width="0.5" stroke-linejoin="round"/>
<path d="M12.9999 5.61614H9.30762V4.69306H12.0768V1.92383H12.9999V5.61614Z" fill="black" stroke="black" stroke-width="0.5" stroke-linejoin="round"/>
</svg>
