<svg width="38" height="38" viewBox="0 0 38 38" fill="none" xmlns="http://www.w3.org/2000/svg">
<path fill-rule="evenodd" clip-rule="evenodd" d="M24.9468 8.65288L25.0517 8.70577C25.53 8.98191 25.6923 9.59633 25.4224 10.0638L23.4131 13.5439C23.1591 13.9839 22.6183 14.1552 22.1567 13.9548L22.0517 13.9019C21.5734 13.6258 21.4112 13.0114 21.6811 12.5439L23.6903 9.06381C23.9444 8.62378 24.4852 8.45247 24.9468 8.65288ZM19.0571 7C19.6094 7 20.0571 7.45098 20.0571 7.99078V12.0092C20.0571 12.5173 19.6744 12.9361 19.1745 12.9933L19.0571 13C18.5048 13 18.0571 12.549 18.0571 12.0092V7.99078C18.0571 7.48267 18.4398 7.0639 18.9398 7.00667L19.0571 7Z" fill="black" fill-opacity="0.7"></path>
<path d="M29.1245 14.4178C29.6027 14.1416 29.7666 13.53 29.4905 13.0518C29.2143 12.5735 28.6027 12.4096 28.1245 12.6857L24.6604 14.6857C24.1821 14.9619 24.0182 15.5735 24.2943 16.0518C24.5705 16.53 25.1821 16.6939 25.6604 16.4178L29.1245 14.4178Z" fill="black" fill-opacity="0.2"></path>
<path d="M30 20.0571C30.5523 20.0571 31 19.6094 31 19.0571C31 18.5048 30.5523 18.0571 30 18.0571H26C25.4477 18.0571 25 18.5048 25 19.0571C25 19.6094 25.4477 20.0571 26 20.0571H30Z" fill="black" fill-opacity="0.25"></path>
<path d="M28.1245 25.4178C28.6027 25.6939 29.2143 25.53 29.4905 25.0518C29.7666 24.5735 29.6027 23.9619 29.1245 23.6857L25.6604 21.6857C25.1821 21.4096 24.5705 21.5735 24.2943 22.0518C24.0182 22.53 24.1821 23.1416 24.6604 23.4178L28.1245 25.4178Z" fill="black" fill-opacity="0.3"></path>
<path d="M23.6857 29.1244C23.9618 29.6027 24.5734 29.7665 25.0517 29.4904C25.53 29.2142 25.6939 28.6027 25.4177 28.1244L23.4177 24.6603C23.1416 24.182 22.53 24.0181 22.0517 24.2942C21.5734 24.5704 21.4095 25.182 21.6857 25.6603L23.6857 29.1244Z" fill="black" fill-opacity="0.35"></path>
<path d="M18.0571 30C18.0571 30.5523 18.5048 31 19.0571 31C19.6094 31 20.0571 30.5523 20.0571 30V26C20.0571 25.4477 19.6094 25 19.0571 25C18.5048 25 18.0571 25.4477 18.0571 26V30Z" fill="black" fill-opacity="0.4"></path>
<path d="M12.6857 28.1244C12.4095 28.6027 12.5734 29.2142 13.0517 29.4904C13.53 29.7665 14.1416 29.6027 14.4177 29.1244L16.4177 25.6603C16.6939 25.182 16.53 24.5704 16.0517 24.2942C15.5734 24.0181 14.9618 24.182 14.6857 24.6603L12.6857 28.1244Z" fill="black" fill-opacity="0.45"></path>
<path d="M9.07184 23.6857C8.59354 23.9618 8.42967 24.5734 8.70581 25.0517C8.98195 25.53 9.59354 25.6939 10.0718 25.4178L13.5359 23.4178C14.0142 23.1416 14.1781 22.53 13.902 22.0517C13.6258 21.5734 13.0142 21.4096 12.5359 21.6857L9.07184 23.6857Z" fill="black" fill-opacity="0.5"></path>
<path d="M8 18.0571C7.44772 18.0571 7 18.5048 7 19.0571C7 19.6094 7.44772 20.0571 8 20.0571H12C12.5523 20.0571 13 19.6094 13 19.0571C13 18.5048 12.5523 18.0571 12 18.0571H8Z" fill="black" fill-opacity="0.55"></path>
<path d="M10.0718 12.6857C9.59354 12.4096 8.98195 12.5734 8.70581 13.0517C8.42967 13.53 8.59354 14.1416 9.07184 14.4178L12.5359 16.4178C13.0142 16.6939 13.6258 16.53 13.902 16.0517C14.1781 15.5734 14.0142 14.9618 13.5359 14.6857L10.0718 12.6857Z" fill="black" fill-opacity="0.6"></path>
<path d="M14.4178 9.07181C14.1417 8.59351 13.5301 8.42964 13.0518 8.70578C12.5735 8.98192 12.4096 9.59351 12.6858 10.0718L14.6858 13.5359C14.9619 14.0142 15.5735 14.1781 16.0518 13.9019C16.5301 13.6258 16.694 13.0142 16.4178 12.5359L14.4178 9.07181Z" fill="black" fill-opacity="0.65"></path>
</svg>