<svg width="14" height="14" viewBox="0 0 14 14" fill="none" xmlns="http://www.w3.org/2000/svg">
    <path d="M14 7.32812C14 7.81758 13.8824 8.27148 13.6473 8.68711C13.4121 9.10273 13.0977 9.42812 12.7012 9.65508C12.7121 9.72891 12.7176 9.84375 12.7176 9.99961C12.7176 10.7406 12.4688 11.3695 11.9766 11.8891C11.4816 12.4113 10.8855 12.6711 10.1883 12.6711C9.87656 12.6711 9.57852 12.6137 9.29688 12.4988C9.07812 12.9473 8.76367 13.3082 8.35078 13.5844C7.94063 13.8633 7.48945 14 7 14C6.49961 14 6.0457 13.866 5.64102 13.5926C5.23359 13.3219 4.92188 12.9582 4.70312 12.4988C4.42148 12.6137 4.12617 12.6711 3.81172 12.6711C3.11445 12.6711 2.51562 12.4113 2.01523 11.8891C1.51484 11.3695 1.26602 10.7379 1.26602 9.99961C1.26602 9.91758 1.27695 9.80273 1.29609 9.65508C0.899609 9.42539 0.585156 9.10273 0.35 8.68711C0.117578 8.27148 0 7.81758 0 7.32812C0 6.80859 0.13125 6.33008 0.391016 5.89805C0.650781 5.46602 1.00078 5.14609 1.43828 4.93828C1.32344 4.62656 1.26602 4.31211 1.26602 4.00039C1.26602 3.26211 1.51484 2.63047 2.01523 2.11094C2.51562 1.59141 3.11445 1.32891 3.81172 1.32891C4.12344 1.32891 4.42148 1.38633 4.70312 1.50117C4.92188 1.05273 5.23633 0.691797 5.64922 0.415625C6.05937 0.139453 6.51055 0 7 0C7.48945 0 7.94063 0.139453 8.35078 0.412891C8.76094 0.689062 9.07812 1.05 9.29688 1.49844C9.57852 1.38359 9.87383 1.32617 10.1883 1.32617C10.8855 1.32617 11.4816 1.58594 11.9766 2.1082C12.4715 2.63047 12.7176 3.25938 12.7176 3.99766C12.7176 4.34219 12.6656 4.65391 12.5617 4.93555C12.9992 5.14336 13.3492 5.46328 13.609 5.89531C13.8687 6.33008 14 6.80859 14 7.32812Z" fill="#003623" />
    <path d="M6.97273 9.4363L10.1728 5.10779C10.2546 4.99294 10.2788 4.86716 10.2515 4.73318C10.2213 4.59919 10.1456 4.49255 10.0184 4.42146C9.89126 4.34763 9.752 4.32302 9.60365 4.34216C9.45227 4.36404 9.33117 4.42966 9.24035 4.54451L6.42172 8.37263L5.12291 7.20232C5.00786 7.09841 4.87465 7.04919 4.7263 7.05466C4.57493 7.06013 4.44474 7.10935 4.3297 7.20232C4.22676 7.29529 4.17529 7.41286 4.17529 7.55505C4.17529 7.69451 4.22676 7.81208 4.3297 7.90779L6.11291 9.51833L6.20071 9.58122C6.30364 9.64411 6.40961 9.67419 6.51254 9.67419C6.71539 9.67146 6.86979 9.5949 6.97273 9.4363Z" fill="#CBF851" />
</svg>
