<svg width="74" height="23" viewBox="0 0 74 23" fill="none" xmlns="http://www.w3.org/2000/svg">
<path d="M32.2949 21.7607H26.4424L30.103 0.386719H35.9551L32.2949 21.7607Z" fill="#100A20"/>
<path d="M53.5105 0.909976C52.3561 0.477503 50.5252 0 48.2613 0C42.4817 0 38.4118 2.91035 38.3869 7.07128C38.3389 10.1412 41.3008 11.8463 43.5161 12.8699C45.7803 13.9159 46.55 14.5986 46.55 15.5309C46.527 16.9629 44.7204 17.6229 43.0354 17.6229C40.6988 17.6229 39.4468 17.2826 37.5442 16.486L36.7736 16.1445L35.9546 20.9425C37.3272 21.533 39.8562 22.057 42.4817 22.08C48.6226 22.08 52.6205 19.2147 52.6678 14.7805C52.6912 12.3474 51.1272 10.483 47.7553 8.95954C45.7083 7.98156 44.4548 7.32212 44.4548 6.32148C44.4788 5.41181 45.515 4.48007 47.8257 4.48007C49.7283 4.43444 51.1262 4.8663 52.1852 5.29847L52.7146 5.52544L53.5105 0.909976Z" fill="#100A20"/>
<path fill-rule="evenodd" clip-rule="evenodd" d="M63.9864 0.386719H68.5133L73.2348 21.7604H67.816C67.816 21.7604 67.2857 19.3046 67.1177 18.5542H59.6035C59.3862 19.1224 58.3752 21.7604 58.3752 21.7604H52.2344L60.9275 2.16013C61.5298 0.772952 62.5904 0.386719 63.9864 0.386719ZM63.6257 8.20841C63.6257 8.20841 61.7711 12.9608 61.2892 14.1887H66.1537C65.913 13.12 64.8048 8.0038 64.8048 8.0038L64.3958 6.16209C64.2235 6.63634 63.9744 7.28837 63.8064 7.72814C63.6925 8.02626 63.6159 8.22684 63.6257 8.20841Z" fill="#100A20"/>
<path d="M21.5538 0.386719L15.8223 14.9618L15.196 12.0058C14.1363 8.59494 10.8131 4.88915 7.10449 3.04653L12.3544 21.7381H18.5432L27.7424 0.386719H21.5538V0.386719Z" fill="#100A20"/>
<path d="M10.5002 0.386719H1.08412L0.987793 0.818587C8.33295 2.5923 13.1975 6.86777 15.1961 12.0067L13.1492 2.1834C12.8122 0.818285 11.7765 0.431749 10.5002 0.386719Z" fill="#100A20"/>
</svg>
