<svg width="140" height="24" viewBox="0 0 140 24" fill="none" xmlns="http://www.w3.org/2000/svg">
<path fill-rule="evenodd" clip-rule="evenodd" d="M85.0356 15.0867C85.0356 18.5315 86.8809 20.605 89.8254 20.605C92.3145 20.605 94.0419 19.1015 94.2853 16.7058H92.2202C91.9925 17.9697 91.0896 18.7463 89.8332 18.7463C88.2157 18.7463 87.1949 17.3419 87.1949 15.0702C87.1949 12.8315 88.2236 11.4188 89.8254 11.4188C91.0581 11.4188 92.0161 12.278 92.2124 13.5832H94.2775C94.1126 11.2041 92.2595 9.57666 89.8254 9.57666C86.8966 9.57666 85.0356 11.6501 85.0356 15.0867ZM50.573 13.1454L48.6493 20.4232H46.647L43.9695 9.76666H46.1681L47.762 17.4823H47.817L49.7093 9.76666H51.4996L53.3919 17.4823H53.4469L55.0487 9.76666H57.2473L54.5619 20.4232H52.5596L50.6359 13.1454H50.573ZM60.1682 18.9858C61.0555 18.9858 61.7936 18.3745 61.7936 17.5154V16.9371L60.2075 17.0363C59.4458 17.0941 59.0061 17.4576 59.0061 18.0193C59.0061 18.6224 59.4694 18.9858 60.1682 18.9858ZM56.9725 18.1515C56.9725 19.5724 58.0639 20.5471 59.493 20.5471C60.4352 20.5471 61.3617 20.0515 61.7858 19.2171H61.825V20.4315H63.8037V14.9876C63.8037 13.3932 62.5474 12.3441 60.6158 12.3441C58.6214 12.3441 57.3808 13.4015 57.3022 14.938H59.1789C59.281 14.3515 59.7678 13.9549 60.5294 13.9549C61.2989 13.9549 61.7936 14.3845 61.7936 15.1197V15.6402L59.9013 15.7558C58.0246 15.8797 56.9725 16.7141 56.9725 18.1515ZM65.1778 9.76666H67.2272V20.4232H65.1778V9.76666ZM70.7057 9.76666H68.6563V20.4232H70.7057V9.76666ZM75.464 13.9302C74.5689 13.9302 73.9171 14.6489 73.8465 15.6319H77.0423C77.003 14.6241 76.3748 13.9302 75.464 13.9302ZM78.9582 18.0028H77.0737C76.8774 18.6058 76.3042 18.9941 75.5661 19.0106C74.5218 19.0106 73.8386 18.2341 73.8386 17.1023V16.9702H79.021V16.3093C79.021 13.9054 77.639 12.3441 75.4483 12.3441C73.2262 12.3441 71.8207 13.9797 71.8207 16.5076C71.8207 19.0354 73.2105 20.5967 75.5268 20.5967C77.3877 20.5967 78.7304 19.5558 78.9582 18.0028ZM80.6149 10.6836H82.6643V12.5093H84.0541V14.1367H82.6643V17.9202C82.6643 18.5232 82.947 18.8124 83.5516 18.8124C83.7322 18.8124 83.9206 18.7958 84.0463 18.7793V20.3654C83.8343 20.415 83.4809 20.4563 83.0726 20.4563C81.3059 20.4563 80.6149 19.8367 80.6149 18.2919V14.1367H79.5549V12.5093H80.6149V10.6836ZM98.8631 20.5884C96.586 20.5884 95.1334 19.0519 95.1334 16.458C95.1334 13.8971 96.6095 12.3358 98.8631 12.3358C101.117 12.3358 102.593 13.8889 102.593 16.458C102.593 19.0602 101.14 20.5884 98.8631 20.5884ZM100.504 16.4663C100.504 18.0524 99.8681 18.9445 98.8631 18.9445C97.858 18.9445 97.2141 18.0524 97.2141 16.4663C97.2141 14.8967 97.8659 13.988 98.8631 13.988C99.8603 13.988 100.504 14.8967 100.504 16.4663ZM103.645 20.4232V12.5093H105.624V13.9219H105.663C106.063 12.9388 106.856 12.3606 108.019 12.3606C109.691 12.3606 110.625 13.4675 110.625 15.318V20.4232H108.576V15.7723C108.576 14.7397 108.113 14.1449 107.194 14.1449C106.275 14.1449 105.694 14.8554 105.694 15.8797V20.4232H103.645ZM111.921 12.5093V20.4232H113.963V15.8797C113.963 14.8554 114.544 14.1449 115.462 14.1449C116.381 14.1449 116.844 14.7397 116.844 15.7723V20.4232H118.894V15.318C118.894 13.4675 117.959 12.3606 116.287 12.3606C115.132 12.3606 114.339 12.9388 113.939 13.9219H113.9V12.5093H111.921ZM123.581 13.9302C122.686 13.9302 122.034 14.6489 121.964 15.6319H125.16C125.12 14.6241 124.492 13.9302 123.581 13.9302ZM127.068 18.0028H125.183C124.995 18.6058 124.421 18.9941 123.676 19.0106C122.631 19.0106 121.948 18.2341 121.948 17.1023V16.9702H127.13V16.3093C127.13 13.9054 125.748 12.3441 123.558 12.3441C121.336 12.3441 119.93 13.9797 119.93 16.5076C119.93 19.0354 121.32 20.5967 123.636 20.5967C125.497 20.5967 126.84 19.5558 127.068 18.0028ZM135.014 15.4502H133.114C132.996 14.6158 132.47 14.0293 131.63 14.0293C130.617 14.0293 129.989 14.9297 129.989 16.458C129.989 18.0193 130.617 18.9032 131.637 18.9032C132.462 18.9032 132.988 18.3828 133.122 17.5237H135.03C134.927 19.3906 133.6 20.5967 131.622 20.5967C129.353 20.5967 127.916 19.0437 127.916 16.4663C127.916 13.9302 129.353 12.3441 131.606 12.3441C133.632 12.3358 134.927 13.6575 135.014 15.4502ZM138.61 10.6836H136.561V12.5093H135.501V14.1367H136.561V18.2919C136.561 19.8367 137.252 20.4563 139.018 20.4563C139.435 20.4563 139.78 20.415 139.992 20.3654V18.7793C139.866 18.7958 139.678 18.8124 139.497 18.8124C138.893 18.8124 138.61 18.5232 138.61 17.9202V14.1367H140V12.5093H138.61V10.6836Z" fill="black"></path>
<path fill-rule="evenodd" clip-rule="evenodd" d="M29.612 4.69013C23.5345 -1.56338 13.6959 -1.56338 7.62629 4.69013L6.82538 5.51622C6.51915 5.83014 6.51915 6.33405 6.82538 6.64797L9.33018 9.22537C9.47937 9.38233 9.73064 9.38233 9.87982 9.22537L10.9556 8.11841C15.1878 3.75665 22.0583 3.75665 26.2906 8.11841L27.2956 9.15102C27.4448 9.30798 27.6961 9.30798 27.8453 9.15102L30.3422 6.57362C30.6485 6.2597 30.6485 5.75579 30.3422 5.44187L29.612 4.69013ZM37.0008 12.2984L34.7786 10.0102C34.4724 9.69624 33.9777 9.69624 33.6793 10.0184L26.5576 17.3541C26.479 17.4284 26.3612 17.4284 26.2827 17.3541L19.1609 10.0184C18.8547 9.7045 18.3679 9.7045 18.0616 10.0184L10.9477 17.3541C10.8692 17.4284 10.7514 17.4284 10.6729 17.3541L3.55108 10.0184C3.24485 9.7045 2.75803 9.7045 2.4518 10.0184L0.229672 12.3067C-0.0765574 12.6206 -0.0765574 13.1245 0.229672 13.4384L10.2646 23.7646C10.5708 24.0785 11.0576 24.0785 11.3639 23.7646L18.4778 16.4289C18.5563 16.3545 18.6741 16.3545 18.7526 16.4289L25.8744 23.7646C26.1807 24.0785 26.6675 24.0785 26.9737 23.7646L37.0008 13.4302C37.307 13.1163 37.307 12.6123 37.0008 12.2984Z" fill="black"></path>
</svg>