<?xml version="1.0" standalone="no"?>
<!DOCTYPE svg PUBLIC "-//W3C//DTD SVG 1.1//EN" "http://www.w3.org/Graphics/SVG/1.1/DTD/svg11.dtd" >
<svg xmlns="http://www.w3.org/2000/svg">
<metadata>Generated by IcoMoon</metadata>
<defs>
<font id="icomoon" horiz-adv-x="1024">
<font-face units-per-em="1024" ascent="960" descent="-64" />
<missing-glyph horiz-adv-x="1024" />
<glyph unicode="&#x20;" horiz-adv-x="512" d="" />
<glyph unicode="&#xe900;" glyph-name="about-card-dark-theme" d="M853.333 789.333h-682.667c-47.36 0-84.907-37.973-84.907-85.333l-0.427-512c0-47.36 37.973-85.333 85.333-85.333h682.667c47.36 0 85.333 37.973 85.333 85.333v512c0 47.36-37.973 85.333-85.333 85.333zM810.667 192h-597.333c-23.467 0-42.667 19.2-42.667 42.667v213.333h682.667v-213.333c0-23.467-19.2-42.667-42.667-42.667zM853.333 618.667h-682.667v85.333h682.667v-85.333z" />
<glyph unicode="&#xe901;" glyph-name="about-card-light-theme" d="M853.333 789.333h-682.667c-47.36 0-84.907-37.973-84.907-85.333l-0.427-512c0-47.36 37.973-85.333 85.333-85.333h682.667c47.36 0 85.333 37.973 85.333 85.333v512c0 47.36-37.973 85.333-85.333 85.333zM810.667 192h-597.333c-23.467 0-42.667 19.2-42.667 42.667v213.333h682.667v-213.333c0-23.467-19.2-42.667-42.667-42.667zM853.333 618.667h-682.667v85.333h682.667v-85.333z" />
<glyph unicode="&#xe902;" glyph-name="about-savings-dark-theme" d="M503.467 494.933c-96.853 25.173-128 51.2-128 91.733 0 46.507 43.093 78.933 115.2 78.933 60.587 0 90.88-23.040 101.973-59.733 5.12-17.067 19.2-29.867 37.12-29.867h12.8c28.16 0 48.213 27.733 38.4 54.187-17.92 50.347-59.733 92.16-126.293 108.373v29.44c0 35.413-28.587 64-64 64s-64-28.587-64-64v-28.16c-82.773-17.92-149.333-71.68-149.333-154.027 0-98.56 81.493-147.627 200.533-176.213 106.667-25.6 128-63.147 128-102.827 0-29.44-20.907-76.373-115.2-76.373-70.4 0-106.667 25.173-120.747 61.013-6.4 16.64-20.907 28.587-38.4 28.587h-11.947c-28.587 0-48.64-29.013-37.973-55.467 24.32-59.307 81.067-94.293 145.067-107.947v-28.587c0-35.413 28.587-64 64-64s64 28.587 64 64v27.733c83.2 15.787 149.333 64 149.333 151.467 0 121.173-103.68 162.56-200.533 187.733z" />
<glyph unicode="&#xe903;" glyph-name="about-savings-light-theme" d="M503.467 494.933c-96.853 25.173-128 51.2-128 91.733 0 46.507 43.093 78.933 115.2 78.933 60.587 0 90.88-23.040 101.973-59.733 5.12-17.067 19.2-29.867 37.12-29.867h12.8c28.16 0 48.213 27.733 38.4 54.187-17.92 50.347-59.733 92.16-126.293 108.373v29.44c0 35.413-28.587 64-64 64s-64-28.587-64-64v-28.16c-82.773-17.92-149.333-71.68-149.333-154.027 0-98.56 81.493-147.627 200.533-176.213 106.667-25.6 128-63.147 128-102.827 0-29.44-20.907-76.373-115.2-76.373-70.4 0-106.667 25.173-120.747 61.013-6.4 16.64-20.907 28.587-38.4 28.587h-11.947c-28.587 0-48.64-29.013-37.973-55.467 24.32-59.307 81.067-94.293 145.067-107.947v-28.587c0-35.413 28.587-64 64-64s64 28.587 64 64v27.733c83.2 15.787 149.333 64 149.333 151.467 0 121.173-103.68 162.56-200.533 187.733z" />
<glyph unicode="&#xe904;" glyph-name="about-savings-plus-dark-theme" d="M768 405.333h-213.333v-213.333c0-23.467-19.2-42.667-42.667-42.667s-42.667 19.2-42.667 42.667v213.333h-213.333c-23.467 0-42.667 19.2-42.667 42.667s19.2 42.667 42.667 42.667h213.333v213.333c0 23.467 19.2 42.667 42.667 42.667s42.667-19.2 42.667-42.667v-213.333h213.333c23.467 0 42.667-19.2 42.667-42.667s-19.2-42.667-42.667-42.667z" />
<glyph unicode="&#xe905;" glyph-name="about-savings-plus-light-theme" d="M768 405.333h-213.333v-213.333c0-23.467-19.2-42.667-42.667-42.667s-42.667 19.2-42.667 42.667v213.333h-213.333c-23.467 0-42.667 19.2-42.667 42.667s19.2 42.667 42.667 42.667h213.333v213.333c0 23.467 19.2 42.667 42.667 42.667s42.667-19.2 42.667-42.667v-213.333h213.333c23.467 0 42.667-19.2 42.667-42.667s-19.2-42.667-42.667-42.667z" />
<glyph unicode="&#xe906;" glyph-name="about-smart-treasury-dark-theme" d="M170.667 469.333v-170.667c0-35.413 28.587-64 64-64s64 28.587 64 64v170.667c0 35.413-28.587 64-64 64s-64-28.587-64-64zM426.667 469.333v-170.667c0-35.413 28.587-64 64-64s64 28.587 64 64v170.667c0 35.413-28.587 64-64 64s-64-28.587-64-64zM149.333 21.333h682.667c35.413 0 64 28.587 64 64s-28.587 64-64 64h-682.667c-35.413 0-64-28.587-64-64s28.587-64 64-64zM682.667 469.333v-170.667c0-35.413 28.587-64 64-64s64 28.587 64 64v170.667c0 35.413-28.587 64-64 64s-64-28.587-64-64zM450.987 896.427l-337.067-177.493c-17.493-8.96-28.587-27.307-28.587-46.933 0-29.44 23.893-53.333 53.333-53.333h704.427c29.013 0 52.907 23.893 52.907 53.333 0 19.627-11.093 37.973-28.587 46.933l-337.067 177.493c-24.747 13.227-54.613 13.227-79.36 0z" />
<glyph unicode="&#xe907;" glyph-name="about-smart-treasury-light-theme" d="M170.667 469.333v-170.667c0-35.413 28.587-64 64-64s64 28.587 64 64v170.667c0 35.413-28.587 64-64 64s-64-28.587-64-64zM426.667 469.333v-170.667c0-35.413 28.587-64 64-64s64 28.587 64 64v170.667c0 35.413-28.587 64-64 64s-64-28.587-64-64zM149.333 21.333h682.667c35.413 0 64 28.587 64 64s-28.587 64-64 64h-682.667c-35.413 0-64-28.587-64-64s28.587-64 64-64zM682.667 469.333v-170.667c0-35.413 28.587-64 64-64s64 28.587 64 64v170.667c0 35.413-28.587 64-64 64s-64-28.587-64-64zM450.987 896.427l-337.067-177.493c-17.493-8.96-28.587-27.307-28.587-46.933 0-29.44 23.893-53.333 53.333-53.333h704.427c29.013 0 52.907 23.893 52.907 53.333 0 19.627-11.093 37.973-28.587 46.933l-337.067 177.493c-24.747 13.227-54.613 13.227-79.36 0z" />
<glyph unicode="&#xe908;" glyph-name="about-staking-dark-theme" d="M896 192c23.467 0 42.667 19.2 42.667 42.667v42.667h42.667c23.467 0 42.667 19.2 42.667 42.667s-19.2 42.667-42.667 42.667h-42.667v42.667c0 23.467-19.2 42.667-42.667 42.667s-42.667-19.2-42.667-42.667v-42.667h-42.667c-23.467 0-42.667-19.2-42.667-42.667s19.2-42.667 42.667-42.667h42.667v-42.667c0-23.467 19.2-42.667 42.667-42.667zM301.227 578.56l-87.893 40.107 87.893 40.107 40.107 87.893 40.107-87.893 87.893-40.107-87.893-40.107-40.107-87.893-40.107 87.893zM341.333 64l40.107 87.893 87.893 40.107-87.893 40.107-40.107 87.893-40.107-87.893-87.893-40.107 87.893-40.107 40.107-87.893zM186.453 432.213l-58.453-26.88 58.453-26.88 26.88-58.453 26.88 58.453 58.453 26.88-58.453 26.88-26.88 58.453-26.88-58.453zM810.667 89.173c0-33.28-35.84-53.333-64.427-36.693-139.947 81.493-234.24 233.813-234.24 395.52 0 116.48 46.080 224.853 117.333 309.333l-81.067 81.067c-13.227 13.227-3.84 36.267 15.36 36.267h225.707c11.947 0 21.333-9.387 21.333-21.333v-225.707c0-19.2-23.040-28.587-36.267-14.933l-84.053 84.053c-57.173-70.4-93.013-158.293-93.013-248.747 0-133.547 79.36-256.427 192.427-322.133 12.8-7.68 20.907-21.76 20.907-36.693z" />
<glyph unicode="&#xe909;" glyph-name="about-staking-light-theme" d="M896 192c23.467 0 42.667 19.2 42.667 42.667v42.667h42.667c23.467 0 42.667 19.2 42.667 42.667s-19.2 42.667-42.667 42.667h-42.667v42.667c0 23.467-19.2 42.667-42.667 42.667s-42.667-19.2-42.667-42.667v-42.667h-42.667c-23.467 0-42.667-19.2-42.667-42.667s19.2-42.667 42.667-42.667h42.667v-42.667c0-23.467 19.2-42.667 42.667-42.667zM301.227 578.56l-87.893 40.107 87.893 40.107 40.107 87.893 40.107-87.893 87.893-40.107-87.893-40.107-40.107-87.893-40.107 87.893zM341.333 64l40.107 87.893 87.893 40.107-87.893 40.107-40.107 87.893-40.107-87.893-87.893-40.107 87.893-40.107 40.107-87.893zM186.453 432.213l-58.453-26.88 58.453-26.88 26.88-58.453 26.88 58.453 58.453 26.88-58.453 26.88-26.88 58.453-26.88-58.453zM810.667 89.173c0-33.28-35.84-53.333-64.427-36.693-139.947 81.493-234.24 233.813-234.24 395.52 0 116.48 46.080 224.853 117.333 309.333l-81.067 81.067c-13.227 13.227-3.84 36.267 15.36 36.267h225.707c11.947 0 21.333-9.387 21.333-21.333v-225.707c0-19.2-23.040-28.587-36.267-14.933l-84.053 84.053c-57.173-70.4-93.013-158.293-93.013-248.747 0-133.547 79.36-256.427 192.427-322.133 12.8-7.68 20.907-21.76 20.907-36.693z" />
<glyph unicode="&#xe90a;" glyph-name="all-proposals-dark-theme" d="M512 576h170.667c23.467 0 42.667 19.2 42.667 42.667s-19.2 42.667-42.667 42.667h-170.667c-23.467 0-42.667-19.2-42.667-42.667s19.2-42.667 42.667-42.667zM512 405.333h170.667c23.467 0 42.667 19.2 42.667 42.667s-19.2 42.667-42.667 42.667h-170.667c-23.467 0-42.667-19.2-42.667-42.667s19.2-42.667 42.667-42.667zM512 234.667h170.667c23.467 0 42.667 19.2 42.667 42.667s-19.2 42.667-42.667 42.667h-170.667c-23.467 0-42.667-19.2-42.667-42.667s19.2-42.667 42.667-42.667zM298.667 661.333h85.333v-85.333h-85.333v85.333zM298.667 490.667h85.333v-85.333h-85.333v85.333zM298.667 320h85.333v-85.333h-85.333v85.333zM853.333 832h-682.667c-23.467 0-42.667-19.2-42.667-42.667v-682.667c0-23.467 19.2-42.667 42.667-42.667h682.667c23.467 0 42.667 19.2 42.667 42.667v682.667c0 23.467-19.2 42.667-42.667 42.667zM810.667 149.333h-597.333v597.333h597.333v-597.333z" />
<glyph unicode="&#xe90b;" glyph-name="all-proposals-light-theme" d="M512 576h170.667c23.467 0 42.667 19.2 42.667 42.667s-19.2 42.667-42.667 42.667h-170.667c-23.467 0-42.667-19.2-42.667-42.667s19.2-42.667 42.667-42.667zM512 405.333h170.667c23.467 0 42.667 19.2 42.667 42.667s-19.2 42.667-42.667 42.667h-170.667c-23.467 0-42.667-19.2-42.667-42.667s19.2-42.667 42.667-42.667zM512 234.667h170.667c23.467 0 42.667 19.2 42.667 42.667s-19.2 42.667-42.667 42.667h-170.667c-23.467 0-42.667-19.2-42.667-42.667s19.2-42.667 42.667-42.667zM298.667 661.333h85.333v-85.333h-85.333v85.333zM298.667 490.667h85.333v-85.333h-85.333v85.333zM298.667 320h85.333v-85.333h-85.333v85.333zM853.333 832h-682.667c-23.467 0-42.667-19.2-42.667-42.667v-682.667c0-23.467 19.2-42.667 42.667-42.667h682.667c23.467 0 42.667 19.2 42.667 42.667v682.667c0 23.467-19.2 42.667-42.667 42.667zM810.667 149.333h-597.333v597.333h597.333v-597.333z" />
<glyph unicode="&#xe90c;" glyph-name="analytics-dark-theme" d="M277.333 64h-149.333c-23.467 0-42.667 19.2-42.667 42.667v426.667c0 23.467 19.2 42.667 42.667 42.667h149.333c23.467 0 42.667-19.2 42.667-42.667v-426.667c0-23.467-19.2-42.667-42.667-42.667zM586.667 832h-149.333c-23.467 0-42.667-19.2-42.667-42.667v-682.667c0-23.467 19.2-42.667 42.667-42.667h149.333c23.467 0 42.667 19.2 42.667 42.667v682.667c0 23.467-19.2 42.667-42.667 42.667zM896 490.667h-149.333c-23.467 0-42.667-19.2-42.667-42.667v-341.333c0-23.467 19.2-42.667 42.667-42.667h149.333c23.467 0 42.667 19.2 42.667 42.667v341.333c0 23.467-19.2 42.667-42.667 42.667z" />
<glyph unicode="&#xe90d;" glyph-name="analytics-light-theme" d="M277.333 64h-149.333c-23.467 0-42.667 19.2-42.667 42.667v426.667c0 23.467 19.2 42.667 42.667 42.667h149.333c23.467 0 42.667-19.2 42.667-42.667v-426.667c0-23.467-19.2-42.667-42.667-42.667zM586.667 832h-149.333c-23.467 0-42.667-19.2-42.667-42.667v-682.667c0-23.467 19.2-42.667 42.667-42.667h149.333c23.467 0 42.667 19.2 42.667 42.667v682.667c0 23.467-19.2 42.667-42.667 42.667zM896 490.667h-149.333c-23.467 0-42.667-19.2-42.667-42.667v-341.333c0-23.467 19.2-42.667 42.667-42.667h149.333c23.467 0 42.667 19.2 42.667 42.667v341.333c0 23.467-19.2 42.667-42.667 42.667z" />
<glyph unicode="&#xe90e;" glyph-name="back-dark-theme" d="M590.921 626.484c6.067-7.491 5.569-18.164-0.763-25.057l-2.074-1.947-187.050-151.463 187.050-151.496c8.24-6.674 9.511-18.764 2.837-27.004-6.067-7.491-16.61-9.222-24.668-4.461l-2.336 1.624-201.961 163.561c-5.477 4.435-7.875 11.263-6.908 17.763-0.833 5.61 0.84 11.462 4.834 15.809l2.074 1.947 201.961 163.561c8.24 6.674 20.331 5.403 27.004-2.837z" />
<glyph unicode="&#xe90f;" glyph-name="back-light-theme" d="M590.921 626.484c6.067-7.491 5.569-18.164-0.763-25.057l-2.074-1.947-187.050-151.463 187.050-151.496c8.24-6.674 9.511-18.764 2.837-27.004-6.067-7.491-16.61-9.222-24.668-4.461l-2.336 1.624-201.961 163.561c-5.477 4.435-7.875 11.263-6.908 17.763-0.833 5.61 0.84 11.462 4.834 15.809l2.074 1.947 201.961 163.561c8.24 6.674 20.331 5.403 27.004-2.837z" />
<glyph unicode="&#xe910;" glyph-name="card-details-dark-theme" d="M512 448c94.293 0 170.667 76.373 170.667 170.667s-76.373 170.667-170.667 170.667c-94.293 0-170.667-76.373-170.667-170.667s76.373-170.667 170.667-170.667zM512 704c46.933 0 85.333-38.4 85.333-85.333s-38.4-85.333-85.333-85.333c-46.933 0-85.333 38.4-85.333 85.333s38.4 85.333 85.333 85.333zM512 405.333c-113.92 0-341.333-57.173-341.333-170.667v-85.333c0-23.467 19.2-42.667 42.667-42.667h597.333c23.467 0 42.667 19.2 42.667 42.667v85.333c0 113.493-227.413 170.667-341.333 170.667zM768 192h-512v42.24c8.533 30.72 140.8 85.76 256 85.76s247.467-55.040 256-85.333v-42.667z" />
<glyph unicode="&#xe911;" glyph-name="card-details-light-theme" d="M512 448c94.293 0 170.667 76.373 170.667 170.667s-76.373 170.667-170.667 170.667c-94.293 0-170.667-76.373-170.667-170.667s76.373-170.667 170.667-170.667zM512 704c46.933 0 85.333-38.4 85.333-85.333s-38.4-85.333-85.333-85.333c-46.933 0-85.333 38.4-85.333 85.333s38.4 85.333 85.333 85.333zM512 405.333c-113.92 0-341.333-57.173-341.333-170.667v-85.333c0-23.467 19.2-42.667 42.667-42.667h597.333c23.467 0 42.667 19.2 42.667 42.667v85.333c0 113.493-227.413 170.667-341.333 170.667zM768 192h-512v42.24c8.533 30.72 140.8 85.76 256 85.76s247.467-55.040 256-85.333v-42.667z" />
<glyph unicode="&#xe912;" glyph-name="card-top-up-dark-theme" d="M597.333 149.333c0 23.467-19.2 42.667-42.667 42.667h-384v256h768v256c0 46.933-38.4 85.333-85.333 85.333h-682.667c-47.36 0-84.907-37.973-84.907-85.333l-0.427-512c0-47.36 37.973-85.333 85.333-85.333h384c23.467 0 42.667 19.2 42.667 42.667zM853.333 618.667h-682.667v85.333h682.667v-85.333zM853.333 21.333c-23.467 0-42.667 19.2-42.667 42.667v85.333h-85.333c-23.467 0-42.667 19.2-42.667 42.667s19.2 42.667 42.667 42.667h85.333v85.333c0 23.467 19.2 42.667 42.667 42.667s42.667-19.2 42.667-42.667v-85.333h85.333c23.467 0 42.667-19.2 42.667-42.667s-19.2-42.667-42.667-42.667h-85.333v-85.333c0-23.467-19.2-42.667-42.667-42.667z" />
<glyph unicode="&#xe913;" glyph-name="card-top-up-light-theme" d="M597.333 149.333c0 23.467-19.2 42.667-42.667 42.667h-384v256h768v256c0 46.933-38.4 85.333-85.333 85.333h-682.667c-47.36 0-84.907-37.973-84.907-85.333l-0.427-512c0-47.36 37.973-85.333 85.333-85.333h384c23.467 0 42.667 19.2 42.667 42.667zM853.333 618.667h-682.667v85.333h682.667v-85.333zM853.333 21.333c-23.467 0-42.667 19.2-42.667 42.667v85.333h-85.333c-23.467 0-42.667 19.2-42.667 42.667s19.2 42.667 42.667 42.667h85.333v85.333c0 23.467 19.2 42.667 42.667 42.667s42.667-19.2 42.667-42.667v-85.333h85.333c23.467 0 42.667-19.2 42.667-42.667s-19.2-42.667-42.667-42.667h-85.333v-85.333c0-23.467-19.2-42.667-42.667-42.667z" />
<glyph unicode="&#xe914;" glyph-name="change-access-wallet-dark-theme" d="M723.2 523.52l-241.493-241.493c-16.64-16.64-43.52-16.64-60.16 0l-120.747 120.747c-16.64 16.64-16.64 43.52 0 60.16v0c16.64 16.64 43.52 16.64 60.16 0l90.453-90.453 211.2 211.2c16.64 16.64 43.52 16.64 60.16 0v0c17.067-16.64 17.067-43.52 0.427-60.16zM170.667 448c0 99.413 43.52 188.587 111.787 250.88l65.28-65.28c13.227-13.227 36.267-3.84 36.267 15.36v183.040c0 11.947-9.387 21.333-21.333 21.333h-183.040c-19.2 0-28.587-23.040-14.933-36.267l57.173-57.6c-83.627-77.653-136.533-188.16-136.533-311.467 0-202.667 141.653-372.48 331.093-416 26.88-5.973 52.907 14.080 52.907 41.813v0c0 20.053-14.080 37.12-33.707 41.813-151.467 34.56-264.96 170.24-264.96 332.373zM938.667 448c0 202.667-141.653 372.48-331.093 416-26.88 5.973-52.907-14.080-52.907-41.813v0c0-20.053 14.080-37.12 33.707-41.813 151.467-34.56 264.96-170.24 264.96-332.373 0-99.413-43.52-188.587-111.787-250.88l-65.28 65.28c-13.227 13.227-36.267 3.84-36.267-15.36v-183.040c0-11.947 9.387-21.333 21.333-21.333h183.040c19.2 0 28.587 23.040 14.933 36.267l-57.173 57.6c83.627 77.653 136.533 188.16 136.533 311.467z" />
<glyph unicode="&#xe915;" glyph-name="change-access-wallet-light-theme" d="M723.2 523.52l-241.493-241.493c-16.64-16.64-43.52-16.64-60.16 0l-120.747 120.747c-16.64 16.64-16.64 43.52 0 60.16v0c16.64 16.64 43.52 16.64 60.16 0l90.453-90.453 211.2 211.2c16.64 16.64 43.52 16.64 60.16 0v0c17.067-16.64 17.067-43.52 0.427-60.16zM170.667 448c0 99.413 43.52 188.587 111.787 250.88l65.28-65.28c13.227-13.227 36.267-3.84 36.267 15.36v183.040c0 11.947-9.387 21.333-21.333 21.333h-183.040c-19.2 0-28.587-23.040-14.933-36.267l57.173-57.6c-83.627-77.653-136.533-188.16-136.533-311.467 0-202.667 141.653-372.48 331.093-416 26.88-5.973 52.907 14.080 52.907 41.813v0c0 20.053-14.080 37.12-33.707 41.813-151.467 34.56-264.96 170.24-264.96 332.373zM938.667 448c0 202.667-141.653 372.48-331.093 416-26.88 5.973-52.907-14.080-52.907-41.813v0c0-20.053 14.080-37.12 33.707-41.813 151.467-34.56 264.96-170.24 264.96-332.373 0-99.413-43.52-188.587-111.787-250.88l-65.28 65.28c-13.227 13.227-36.267 3.84-36.267-15.36v-183.040c0-11.947 9.387-21.333 21.333-21.333h183.040c19.2 0 28.587 23.040 14.933 36.267l-57.173 57.6c83.627 77.653 136.533 188.16 136.533 311.467z" />
<glyph unicode="&#xe916;" glyph-name="change-phone-number-dark-theme" d="M128 215.040v-129.707c0-11.947 9.387-21.333 21.333-21.333h129.707c5.547 0 11.093 2.133 14.933 6.4l465.92 465.493-160 160-465.493-465.493c-4.267-4.267-6.4-9.387-6.4-15.36zM883.627 659.627c16.64 16.64 16.64 43.52 0 60.16l-99.84 99.84c-16.64 16.64-43.52 16.64-60.16 0l-78.080-78.080 160-160 78.080 78.080z" />
<glyph unicode="&#xe917;" glyph-name="change-phone-number-light-theme" d="M128 215.040v-129.707c0-11.947 9.387-21.333 21.333-21.333h129.707c5.547 0 11.093 2.133 14.933 6.4l465.92 465.493-160 160-465.493-465.493c-4.267-4.267-6.4-9.387-6.4-15.36zM883.627 659.627c16.64 16.64 16.64 43.52 0 60.16l-99.84 99.84c-16.64 16.64-43.52 16.64-60.16 0l-78.080-78.080 160-160 78.080 78.080z" />
<glyph unicode="&#xe918;" glyph-name="change-photo-dark-theme" d="M640 405.333c0-70.692-57.308-128-128-128s-128 57.308-128 128c0 70.692 57.308 128 128 128s128-57.308 128-128zM853.333 746.667h-135.253l-52.907 57.6c-15.787 17.493-38.827 27.733-62.72 27.733h-180.907c-23.893 0-46.933-10.24-63.147-27.733l-52.48-57.6h-135.253c-46.933 0-85.333-38.4-85.333-85.333v-512c0-46.933 38.4-85.333 85.333-85.333h682.667c46.933 0 85.333 38.4 85.333 85.333v512c0 46.933-38.4 85.333-85.333 85.333zM512 192c-117.76 0-213.333 95.573-213.333 213.333s95.573 213.333 213.333 213.333c117.76 0 213.333-95.573 213.333-213.333s-95.573-213.333-213.333-213.333z" />
<glyph unicode="&#xe919;" glyph-name="change-photo-light-theme" d="M640 405.333c0-70.692-57.308-128-128-128s-128 57.308-128 128c0 70.692 57.308 128 128 128s128-57.308 128-128zM853.333 746.667h-135.253l-52.907 57.6c-15.787 17.493-38.827 27.733-62.72 27.733h-180.907c-23.893 0-46.933-10.24-63.147-27.733l-52.48-57.6h-135.253c-46.933 0-85.333-38.4-85.333-85.333v-512c0-46.933 38.4-85.333 85.333-85.333h682.667c46.933 0 85.333 38.4 85.333 85.333v512c0 46.933-38.4 85.333-85.333 85.333zM512 192c-117.76 0-213.333 95.573-213.333 213.333s95.573 213.333 213.333 213.333c117.76 0 213.333-95.573 213.333-213.333s-95.573-213.333-213.333-213.333z" />
<glyph unicode="&#xe91a;" glyph-name="claim-and-burn-dark-theme" d="M729.173 765.44c-29.867 43.947-64 84.907-102.4 121.6-14.933 14.507-40.107 0.853-35.84-19.627 8.107-40.107 16.64-93.013 16.64-140.373 0-87.893-57.6-159.147-145.493-159.147-65.707 0-119.467 39.68-142.933 96.427-4.267 8.533-5.973 13.653-8.533 23.040-4.693 17.92-28.16 23.467-38.4 7.68-7.68-11.52-14.933-23.040-21.76-35.413-50.773-87.040-79.787-188.587-79.787-296.96 0-188.587 152.747-341.333 341.333-341.333s341.333 152.747 341.333 341.333c0 148.907-46.080 287.147-124.16 402.773zM499.627 149.333c-75.947 0-137.387 59.733-137.387 133.973 0 69.12 44.8 117.76 119.893 133.12 62.72 12.8 127.147 39.68 171.947 81.92 11.947 11.093 31.573 5.973 34.987-9.813 9.813-43.52 14.935-88.747 14.935-134.4 0.425-113.067-91.308-204.8-204.375-204.8v0z" />
<glyph unicode="&#xe91b;" glyph-name="claim-and-burn-light-theme" d="M729.173 765.44c-29.867 43.947-64 84.907-102.4 121.6-14.933 14.507-40.107 0.853-35.84-19.627 8.107-40.107 16.64-93.013 16.64-140.373 0-87.893-57.6-159.147-145.493-159.147-65.707 0-119.467 39.68-142.933 96.427-4.267 8.533-5.973 13.653-8.533 23.040-4.693 17.92-28.16 23.467-38.4 7.68-7.68-11.52-14.933-23.040-21.76-35.413-50.773-87.040-79.787-188.587-79.787-296.96 0-188.587 152.747-341.333 341.333-341.333s341.333 152.747 341.333 341.333c0 148.907-46.080 287.147-124.16 402.773zM499.627 149.333c-75.947 0-137.387 59.733-137.387 133.973 0 69.12 44.8 117.76 119.893 133.12 62.72 12.8 127.147 39.68 171.947 81.92 11.947 11.093 31.573 5.973 34.987-9.813 9.813-43.52 14.935-88.747 14.935-134.4 0.425-113.067-91.308-204.8-204.375-204.8v0z" />
<glyph unicode="&#xe91c;" glyph-name="close-dark-theme" d="M395.423 591.435l2.153-1.859 114.424-114.415 114.424 114.415c7.498 7.498 19.655 7.498 27.153 0 6.816-6.816 7.436-17.483 1.859-24.999l-1.859-2.153-114.415-114.424 114.415-114.424c7.498-7.498 7.498-19.655 0-27.153-6.816-6.816-17.483-7.436-24.999-1.859l-2.153 1.859-114.424 114.415-114.424-114.415c-7.498-7.498-19.655-7.498-27.153 0-6.816 6.816-7.436 17.483-1.859 24.999l1.859 2.153 114.415 114.424-114.415 114.424c-7.498 7.498-7.498 19.655 0 27.153 6.059 6.059 15.16 7.222 22.387 3.489l2.613-1.63z" />
<glyph unicode="&#xe91d;" glyph-name="close-light-theme" d="M395.423 591.435l2.153-1.859 114.424-114.415 114.424 114.415c7.498 7.498 19.655 7.498 27.153 0 6.816-6.816 7.436-17.483 1.859-24.999l-1.859-2.153-114.415-114.424 114.415-114.424c7.498-7.498 7.498-19.655 0-27.153-6.816-6.816-17.483-7.436-24.999-1.859l-2.153 1.859-114.424 114.415-114.424-114.415c-7.498-7.498-19.655-7.498-27.153 0-6.816 6.816-7.436 17.483-1.859 24.999l1.859 2.153 114.415 114.424-114.415 114.424c-7.498 7.498-7.498 19.655 0 27.153 6.059 6.059 15.16 7.222 22.387 3.489l2.613-1.63z" />
<glyph unicode="&#xe91e;" glyph-name="create-proposal-dark-theme" d="M512 661.333c-23.467 0-42.667-19.2-42.667-42.667v-128h-128c-23.467 0-42.667-19.2-42.667-42.667s19.2-42.667 42.667-42.667h128v-128c0-23.467 19.2-42.667 42.667-42.667s42.667 19.2 42.667 42.667v128h128c23.467 0 42.667 19.2 42.667 42.667s-19.2 42.667-42.667 42.667h-128v128c0 23.467-19.2 42.667-42.667 42.667zM512 874.667c-235.52 0-426.667-191.147-426.667-426.667s191.147-426.667 426.667-426.667c235.52 0 426.667 191.147 426.667 426.667s-191.147 426.667-426.667 426.667zM512 106.667c-188.16 0-341.333 153.173-341.333 341.333s153.173 341.333 341.333 341.333c188.16 0 341.333-153.173 341.333-341.333s-153.173-341.333-341.333-341.333z" />
<glyph unicode="&#xe91f;" glyph-name="create-proposal-light-theme" d="M512 661.333c-23.467 0-42.667-19.2-42.667-42.667v-128h-128c-23.467 0-42.667-19.2-42.667-42.667s19.2-42.667 42.667-42.667h128v-128c0-23.467 19.2-42.667 42.667-42.667s42.667 19.2 42.667 42.667v128h128c23.467 0 42.667 19.2 42.667 42.667s-19.2 42.667-42.667 42.667h-128v128c0 23.467-19.2 42.667-42.667 42.667zM512 874.667c-235.52 0-426.667-191.147-426.667-426.667s191.147-426.667 426.667-426.667c235.52 0 426.667 191.147 426.667 426.667s-191.147 426.667-426.667 426.667zM512 106.667c-188.16 0-341.333 153.173-341.333 341.333s153.173 341.333 341.333 341.333c188.16 0 341.333-153.173 341.333-341.333s-153.173-341.333-341.333-341.333z" />
<glyph unicode="&#xe920;" glyph-name="credit-line-dark-theme" d="M853.333 704h-93.013c4.693 13.227 7.68 27.733 7.68 42.667 0 70.827-57.173 128-128 128-44.8 0-83.627-23.040-106.667-57.6l-21.333-28.587-21.333 29.013c-23.040 34.133-61.867 57.173-106.667 57.173-70.827 0-128-57.173-128-128 0-14.933 2.987-29.44 7.68-42.667h-93.013c-47.36 0-84.907-37.973-84.907-85.333l-0.427-469.333c0-47.36 37.973-85.333 85.333-85.333h682.667c47.36 0 85.333 37.973 85.333 85.333v469.333c0 47.36-37.973 85.333-85.333 85.333zM640 789.333c23.467 0 42.667-19.2 42.667-42.667s-19.2-42.667-42.667-42.667c-23.467 0-42.667 19.2-42.667 42.667s19.2 42.667 42.667 42.667zM384 789.333c23.467 0 42.667-19.2 42.667-42.667s-19.2-42.667-42.667-42.667c-23.467 0-42.667 19.2-42.667 42.667s19.2 42.667 42.667 42.667zM853.333 149.333h-682.667v85.333h682.667v-85.333zM853.333 362.667h-682.667v213.333c0 23.467 19.2 42.667 42.667 42.667h174.080l-63.147-86.187c-14.080-19.2-9.813-46.080 9.387-59.733 18.773-13.653 45.653-9.387 59.307 9.387l119.040 162.133 119.040-162.133c13.653-18.773 40.533-23.040 59.307-9.387 19.2 13.653 23.467 40.533 9.387 59.733l-63.147 86.187h174.080c23.467 0 42.667-19.2 42.667-42.667v-213.333z" />
<glyph unicode="&#xe921;" glyph-name="credit-line-light-theme" d="M853.333 704h-93.013c4.693 13.227 7.68 27.733 7.68 42.667 0 70.827-57.173 128-128 128-44.8 0-83.627-23.040-106.667-57.6l-21.333-28.587-21.333 29.013c-23.040 34.133-61.867 57.173-106.667 57.173-70.827 0-128-57.173-128-128 0-14.933 2.987-29.44 7.68-42.667h-93.013c-47.36 0-84.907-37.973-84.907-85.333l-0.427-469.333c0-47.36 37.973-85.333 85.333-85.333h682.667c47.36 0 85.333 37.973 85.333 85.333v469.333c0 47.36-37.973 85.333-85.333 85.333zM640 789.333c23.467 0 42.667-19.2 42.667-42.667s-19.2-42.667-42.667-42.667c-23.467 0-42.667 19.2-42.667 42.667s19.2 42.667 42.667 42.667zM384 789.333c23.467 0 42.667-19.2 42.667-42.667s-19.2-42.667-42.667-42.667c-23.467 0-42.667 19.2-42.667 42.667s19.2 42.667 42.667 42.667zM853.333 149.333h-682.667v85.333h682.667v-85.333zM853.333 362.667h-682.667v213.333c0 23.467 19.2 42.667 42.667 42.667h174.080l-63.147-86.187c-14.080-19.2-9.813-46.080 9.387-59.733 18.773-13.653 45.653-9.387 59.307 9.387l119.040 162.133 119.040-162.133c13.653-18.773 40.533-23.040 59.307-9.387 19.2 13.653 23.467 40.533 9.387 59.733l-63.147 86.187h174.080c23.467 0 42.667-19.2 42.667-42.667v-213.333z" />
<glyph unicode="&#xe922;" glyph-name="dark-mode-off-dark-theme" d="M469.76 829.867c-192-20.907-341.76-183.893-341.76-381.867 0-212.053 171.947-384 384-384 197.547 0 360.533 149.333 381.867 341.333 3.84 33.707-33.28 60.587-65.707 40.533-35.84-23.040-78.507-36.267-124.16-36.267-127.147 0-230.4 103.253-230.4 230.4 0 45.227 13.227 87.893 35.84 123.307 19.2 28.587-1.707 69.547-39.68 66.56z" />
<glyph unicode="&#xe923;" glyph-name="dark-mode-off-light-theme" d="M469.76 829.867c-192-20.907-341.76-183.893-341.76-381.867 0-212.053 171.947-384 384-384 197.547 0 360.533 149.333 381.867 341.333 3.84 33.707-33.28 60.587-65.707 40.533-35.84-23.040-78.507-36.267-124.16-36.267-127.147 0-230.4 103.253-230.4 230.4 0 45.227 13.227 87.893 35.84 123.307 19.2 28.587-1.707 69.547-39.68 66.56z" />
<glyph unicode="&#xe924;" glyph-name="dark-mode-on-dark-theme" d="M469.76 829.867c-192-20.907-341.76-183.893-341.76-381.867 0-212.053 171.947-384 384-384 197.547 0 360.533 149.333 381.867 341.333 3.84 33.707-33.28 60.587-65.707 40.533-35.84-23.040-78.507-36.267-124.16-36.267-127.147 0-230.4 103.253-230.4 230.4 0 45.227 13.227 87.893 35.84 123.307 19.2 28.587-1.707 69.547-39.68 66.56z" />
<glyph unicode="&#xe925;" glyph-name="dark-mode-on-light-theme" d="M469.76 829.867c-192-20.907-341.76-183.893-341.76-381.867 0-212.053 171.947-384 384-384 197.547 0 360.533 149.333 381.867 341.333 3.84 33.707-33.28 60.587-65.707 40.533-35.84-23.040-78.507-36.267-124.16-36.267-127.147 0-230.4 103.253-230.4 230.4 0 45.227 13.227 87.893 35.84 123.307 19.2 28.587-1.707 69.547-39.68 66.56z" />
<glyph unicode="&#xe926;" glyph-name="deposit-dark-theme" d="M896 831.573h-768c-46.933 0-85.333-38.4-85.333-85.333v-127.573c0-23.467 19.2-42.667 42.667-42.667s42.667 19.2 42.667 42.667v85.76c0 23.467 19.2 42.667 42.667 42.667h682.667c23.467 0 42.667-19.2 42.667-42.667v-513.28c0-23.467-19.2-42.667-42.667-42.667h-682.667c-23.467 0-42.667 19.2-42.667 42.667v86.187c0 23.467-19.2 42.667-42.667 42.667s-42.667-19.2-42.667-42.667v-128.427c0-46.507 37.973-84.48 84.48-84.48h768.853c46.933 0 85.333 38.4 85.333 85.333v596.48c0 46.933-38.4 85.333-85.333 85.333zM505.6 313.6l119.040 119.040c8.533 8.533 8.533 21.76 0 30.293l-119.040 119.040c-13.227 13.653-36.267 4.267-36.267-14.933v-76.373h-384c-23.467 0-42.667-19.2-42.667-42.667s19.2-42.667 42.667-42.667h384v-76.373c0-19.2 23.040-28.587 36.267-15.36v0z" />
<glyph unicode="&#xe927;" glyph-name="deposit-light-theme" d="M896 831.573h-768c-46.933 0-85.333-38.4-85.333-85.333v-127.573c0-23.467 19.2-42.667 42.667-42.667s42.667 19.2 42.667 42.667v85.76c0 23.467 19.2 42.667 42.667 42.667h682.667c23.467 0 42.667-19.2 42.667-42.667v-513.28c0-23.467-19.2-42.667-42.667-42.667h-682.667c-23.467 0-42.667 19.2-42.667 42.667v86.187c0 23.467-19.2 42.667-42.667 42.667s-42.667-19.2-42.667-42.667v-128.427c0-46.507 37.973-84.48 84.48-84.48h768.853c46.933 0 85.333 38.4 85.333 85.333v596.48c0 46.933-38.4 85.333-85.333 85.333zM505.6 313.6l119.040 119.040c8.533 8.533 8.533 21.76 0 30.293l-119.040 119.040c-13.227 13.653-36.267 4.267-36.267-14.933v-76.373h-384c-23.467 0-42.667-19.2-42.667-42.667s19.2-42.667 42.667-42.667h384v-76.373c0-19.2 23.040-28.587 36.267-15.36v0z" />
<glyph unicode="&#xe928;" d="M1024 448c0-282.77-229.23-512-512-512s-512 229.23-512 512c0 282.77 229.23 512 512 512s512-229.23 512-512z" />
<glyph unicode="&#xe929;" d="M320 331.52v-64.853c0-5.973 4.693-10.667 10.667-10.667h64.853c2.773 0 5.547 1.067 7.467 3.2l232.96 232.747-80 80-232.747-232.747c-2.133-2.133-3.2-4.693-3.2-7.68zM697.813 553.813c8.32 8.32 8.32 21.76 0 30.080l-49.92 49.92c-8.32 8.32-21.76 8.32-30.080 0l-39.040-39.040 80-80 39.040 39.040z" />
<glyph unicode="&#xe92a;" d="M1024 448c0-282.77-229.23-512-512-512s-512 229.23-512 512c0 282.77 229.23 512 512 512s512-229.23 512-512z" />
<glyph unicode="&#xe92b;" d="M320 331.52v-64.853c0-5.973 4.693-10.667 10.667-10.667h64.853c2.773 0 5.547 1.067 7.467 3.2l232.96 232.747-80 80-232.747-232.747c-2.133-2.133-3.2-4.693-3.2-7.68zM697.813 553.813c8.32 8.32 8.32 21.76 0 30.080l-49.92 49.92c-8.32 8.32-21.76 8.32-30.080 0l-39.040-39.040 80-80 39.040 39.040z" />
<glyph unicode="&#xe92c;" glyph-name="expand-section-dark-theme" d="M684.8 620.8v-172.8c0-10.604-8.596-19.2-19.2-19.2-9.72 0-17.753 7.223-19.025 16.595l-0.175 2.605v134.4h-134.4c-9.72 0-17.753 7.223-19.025 16.595l-0.175 2.605c0 9.72 7.223 17.753 16.595 19.025l2.605 0.175h172.8zM339.2 275.2v172.8c0 10.604 8.596 19.2 19.2 19.2 9.72 0 17.753-7.223 19.025-16.595l0.175-2.605v-134.4h134.4c9.72 0 17.753-7.223 19.025-16.595l0.175-2.605c0-9.72-7.223-17.753-16.595-19.025l-2.605-0.175h-172.8z" />
<glyph unicode="&#xe92d;" glyph-name="expand-section-light-theme" d="M684.8 620.8v-172.8c0-10.604-8.596-19.2-19.2-19.2-9.72 0-17.753 7.223-19.025 16.595l-0.175 2.605v134.4h-134.4c-9.72 0-17.753 7.223-19.025 16.595l-0.175 2.605c0 9.72 7.223 17.753 16.595 19.025l2.605 0.175h172.8zM339.2 275.2v172.8c0 10.604 8.596 19.2 19.2 19.2 9.72 0 17.753-7.223 19.025-16.595l0.175-2.605v-134.4h134.4c9.72 0 17.753-7.223 19.025-16.595l0.175-2.605c0-9.72-7.223-17.753-16.595-19.025l-2.605-0.175h-172.8z" />
<glyph unicode="&#xe92e;" glyph-name="external-link-dark-theme" d="M768 149.333h-512c-23.467 0-42.667 19.2-42.667 42.667v512c0 23.467 19.2 42.667 42.667 42.667h213.333c23.467 0 42.667 19.2 42.667 42.667s-19.2 42.667-42.667 42.667h-256c-47.36 0-85.333-38.4-85.333-85.333v-597.333c0-46.933 38.4-85.333 85.333-85.333h597.333c46.933 0 85.333 38.4 85.333 85.333v256c0 23.467-19.2 42.667-42.667 42.667s-42.667-19.2-42.667-42.667v-213.333c0-23.467-19.2-42.667-42.667-42.667zM597.333 789.333c0-23.467 19.2-42.667 42.667-42.667h110.507l-389.547-389.547c-16.64-16.64-16.64-43.52 0-60.16s43.52-16.64 60.16 0l389.547 389.547v-110.507c0-23.467 19.2-42.667 42.667-42.667s42.667 19.2 42.667 42.667v256h-256c-23.467 0-42.667-19.2-42.667-42.667z" />
<glyph unicode="&#xe92f;" glyph-name="external-link-light-theme" d="M768 149.333h-512c-23.467 0-42.667 19.2-42.667 42.667v512c0 23.467 19.2 42.667 42.667 42.667h213.333c23.467 0 42.667 19.2 42.667 42.667s-19.2 42.667-42.667 42.667h-256c-47.36 0-85.333-38.4-85.333-85.333v-597.333c0-46.933 38.4-85.333 85.333-85.333h597.333c46.933 0 85.333 38.4 85.333 85.333v256c0 23.467-19.2 42.667-42.667 42.667s-42.667-19.2-42.667-42.667v-213.333c0-23.467-19.2-42.667-42.667-42.667zM597.333 789.333c0-23.467 19.2-42.667 42.667-42.667h110.507l-389.547-389.547c-16.64-16.64-16.64-43.52 0-60.16s43.52-16.64 60.16 0l389.547 389.547v-110.507c0-23.467 19.2-42.667 42.667-42.667s42.667 19.2 42.667 42.667v256h-256c-23.467 0-42.667-19.2-42.667-42.667z" />
<glyph unicode="&#xe930;" glyph-name="light-mode-off-dark-theme" d="M512 576c70.4 0 128-57.6 128-128s-57.6-128-128-128c-70.4 0-128 57.6-128 128s57.6 128 128 128zM512 661.333c-117.76 0-213.333-95.573-213.333-213.333s95.573-213.333 213.333-213.333c117.76 0 213.333 95.573 213.333 213.333s-95.573 213.333-213.333 213.333v0zM85.333 405.333h85.333c23.467 0 42.667 19.2 42.667 42.667s-19.2 42.667-42.667 42.667h-85.333c-23.467 0-42.667-19.2-42.667-42.667s19.2-42.667 42.667-42.667zM853.333 405.333h85.333c23.467 0 42.667 19.2 42.667 42.667s-19.2 42.667-42.667 42.667h-85.333c-23.467 0-42.667-19.2-42.667-42.667s19.2-42.667 42.667-42.667zM469.333 874.667v-85.333c0-23.467 19.2-42.667 42.667-42.667s42.667 19.2 42.667 42.667v85.333c0 23.467-19.2 42.667-42.667 42.667s-42.667-19.2-42.667-42.667zM469.333 106.667v-85.333c0-23.467 19.2-42.667 42.667-42.667s42.667 19.2 42.667 42.667v85.333c0 23.467-19.2 42.667-42.667 42.667s-42.667-19.2-42.667-42.667zM255.573 764.587c-16.64 16.64-43.947 16.64-60.16 0-16.64-16.64-16.64-43.947 0-60.16l45.227-45.227c16.64-16.64 43.947-16.64 60.16 0s16.64 43.947 0 60.16l-45.227 45.227zM783.36 236.8c-16.64 16.64-43.947 16.64-60.16 0-16.64-16.64-16.64-43.947 0-60.16l45.227-45.227c16.64-16.64 43.947-16.64 60.16 0 16.64 16.64 16.64 43.947 0 60.16l-45.227 45.227zM828.587 704.427c16.64 16.64 16.64 43.947 0 60.16-16.64 16.64-43.947 16.64-60.16 0l-45.227-45.227c-16.64-16.64-16.64-43.947 0-60.16s43.947-16.64 60.16 0l45.227 45.227zM300.8 176.64c16.64 16.64 16.64 43.947 0 60.16-16.64 16.64-43.947 16.64-60.16 0l-45.227-45.227c-16.64-16.64-16.64-43.947 0-60.16s43.947-16.64 60.16 0l45.227 45.227z" />
<glyph unicode="&#xe931;" glyph-name="light-mode-off-light-theme" d="M512 576c70.4 0 128-57.6 128-128s-57.6-128-128-128c-70.4 0-128 57.6-128 128s57.6 128 128 128zM512 661.333c-117.76 0-213.333-95.573-213.333-213.333s95.573-213.333 213.333-213.333c117.76 0 213.333 95.573 213.333 213.333s-95.573 213.333-213.333 213.333v0zM85.333 405.333h85.333c23.467 0 42.667 19.2 42.667 42.667s-19.2 42.667-42.667 42.667h-85.333c-23.467 0-42.667-19.2-42.667-42.667s19.2-42.667 42.667-42.667zM853.333 405.333h85.333c23.467 0 42.667 19.2 42.667 42.667s-19.2 42.667-42.667 42.667h-85.333c-23.467 0-42.667-19.2-42.667-42.667s19.2-42.667 42.667-42.667zM469.333 874.667v-85.333c0-23.467 19.2-42.667 42.667-42.667s42.667 19.2 42.667 42.667v85.333c0 23.467-19.2 42.667-42.667 42.667s-42.667-19.2-42.667-42.667zM469.333 106.667v-85.333c0-23.467 19.2-42.667 42.667-42.667s42.667 19.2 42.667 42.667v85.333c0 23.467-19.2 42.667-42.667 42.667s-42.667-19.2-42.667-42.667zM255.573 764.587c-16.64 16.64-43.947 16.64-60.16 0-16.64-16.64-16.64-43.947 0-60.16l45.227-45.227c16.64-16.64 43.947-16.64 60.16 0s16.64 43.947 0 60.16l-45.227 45.227zM783.36 236.8c-16.64 16.64-43.947 16.64-60.16 0-16.64-16.64-16.64-43.947 0-60.16l45.227-45.227c16.64-16.64 43.947-16.64 60.16 0 16.64 16.64 16.64 43.947 0 60.16l-45.227 45.227zM828.587 704.427c16.64 16.64 16.64 43.947 0 60.16-16.64 16.64-43.947 16.64-60.16 0l-45.227-45.227c-16.64-16.64-16.64-43.947 0-60.16s43.947-16.64 60.16 0l45.227 45.227zM300.8 176.64c16.64 16.64 16.64 43.947 0 60.16-16.64 16.64-43.947 16.64-60.16 0l-45.227-45.227c-16.64-16.64-16.64-43.947 0-60.16s43.947-16.64 60.16 0l45.227 45.227z" />
<glyph unicode="&#xe932;" glyph-name="light-mode-on-dark-theme" d="M512 576c70.4 0 128-57.6 128-128s-57.6-128-128-128c-70.4 0-128 57.6-128 128s57.6 128 128 128zM512 661.333c-117.76 0-213.333-95.573-213.333-213.333s95.573-213.333 213.333-213.333c117.76 0 213.333 95.573 213.333 213.333s-95.573 213.333-213.333 213.333v0zM85.333 405.333h85.333c23.467 0 42.667 19.2 42.667 42.667s-19.2 42.667-42.667 42.667h-85.333c-23.467 0-42.667-19.2-42.667-42.667s19.2-42.667 42.667-42.667zM853.333 405.333h85.333c23.467 0 42.667 19.2 42.667 42.667s-19.2 42.667-42.667 42.667h-85.333c-23.467 0-42.667-19.2-42.667-42.667s19.2-42.667 42.667-42.667zM469.333 874.667v-85.333c0-23.467 19.2-42.667 42.667-42.667s42.667 19.2 42.667 42.667v85.333c0 23.467-19.2 42.667-42.667 42.667s-42.667-19.2-42.667-42.667zM469.333 106.667v-85.333c0-23.467 19.2-42.667 42.667-42.667s42.667 19.2 42.667 42.667v85.333c0 23.467-19.2 42.667-42.667 42.667s-42.667-19.2-42.667-42.667zM255.573 764.587c-16.64 16.64-43.947 16.64-60.16 0-16.64-16.64-16.64-43.947 0-60.16l45.227-45.227c16.64-16.64 43.947-16.64 60.16 0s16.64 43.947 0 60.16l-45.227 45.227zM783.36 236.8c-16.64 16.64-43.947 16.64-60.16 0-16.64-16.64-16.64-43.947 0-60.16l45.227-45.227c16.64-16.64 43.947-16.64 60.16 0 16.64 16.64 16.64 43.947 0 60.16l-45.227 45.227zM828.587 704.427c16.64 16.64 16.64 43.947 0 60.16-16.64 16.64-43.947 16.64-60.16 0l-45.227-45.227c-16.64-16.64-16.64-43.947 0-60.16s43.947-16.64 60.16 0l45.227 45.227zM300.8 176.64c16.64 16.64 16.64 43.947 0 60.16-16.64 16.64-43.947 16.64-60.16 0l-45.227-45.227c-16.64-16.64-16.64-43.947 0-60.16s43.947-16.64 60.16 0l45.227 45.227z" />
<glyph unicode="&#xe933;" glyph-name="light-mode-on-light-theme" d="M512 576c70.4 0 128-57.6 128-128s-57.6-128-128-128c-70.4 0-128 57.6-128 128s57.6 128 128 128zM512 661.333c-117.76 0-213.333-95.573-213.333-213.333s95.573-213.333 213.333-213.333c117.76 0 213.333 95.573 213.333 213.333s-95.573 213.333-213.333 213.333v0zM85.333 405.333h85.333c23.467 0 42.667 19.2 42.667 42.667s-19.2 42.667-42.667 42.667h-85.333c-23.467 0-42.667-19.2-42.667-42.667s19.2-42.667 42.667-42.667zM853.333 405.333h85.333c23.467 0 42.667 19.2 42.667 42.667s-19.2 42.667-42.667 42.667h-85.333c-23.467 0-42.667-19.2-42.667-42.667s19.2-42.667 42.667-42.667zM469.333 874.667v-85.333c0-23.467 19.2-42.667 42.667-42.667s42.667 19.2 42.667 42.667v85.333c0 23.467-19.2 42.667-42.667 42.667s-42.667-19.2-42.667-42.667zM469.333 106.667v-85.333c0-23.467 19.2-42.667 42.667-42.667s42.667 19.2 42.667 42.667v85.333c0 23.467-19.2 42.667-42.667 42.667s-42.667-19.2-42.667-42.667zM255.573 764.587c-16.64 16.64-43.947 16.64-60.16 0-16.64-16.64-16.64-43.947 0-60.16l45.227-45.227c16.64-16.64 43.947-16.64 60.16 0s16.64 43.947 0 60.16l-45.227 45.227zM783.36 236.8c-16.64 16.64-43.947 16.64-60.16 0-16.64-16.64-16.64-43.947 0-60.16l45.227-45.227c16.64-16.64 43.947-16.64 60.16 0 16.64 16.64 16.64 43.947 0 60.16l-45.227 45.227zM828.587 704.427c16.64 16.64 16.64 43.947 0 60.16-16.64 16.64-43.947 16.64-60.16 0l-45.227-45.227c-16.64-16.64-16.64-43.947 0-60.16s43.947-16.64 60.16 0l45.227 45.227zM300.8 176.64c16.64 16.64 16.64 43.947 0 60.16-16.64 16.64-43.947 16.64-60.16 0l-45.227-45.227c-16.64-16.64-16.64-43.947 0-60.16s43.947-16.64 60.16 0l45.227 45.227z" />
<glyph unicode="&#xe934;" glyph-name="log-out-dark-theme" d="M213.333 746.667h256c23.467 0 42.667 19.2 42.667 42.667v0c0 23.467-19.2 42.667-42.667 42.667h-256c-46.933 0-85.333-38.4-85.333-85.333v-597.333c0-46.933 38.4-85.333 85.333-85.333h256c23.467 0 42.667 19.2 42.667 42.667v0c0 23.467-19.2 42.667-42.667 42.667h-256v597.333zM881.067 462.933l-119.040 119.040c-13.653 13.653-36.693 4.267-36.693-14.933v-76.373h-298.667c-23.467 0-42.667-19.2-42.667-42.667v0c0-23.467 19.2-42.667 42.667-42.667h298.667v-76.373c0-19.2 23.040-28.587 36.267-14.933l119.040 119.040c8.533 8.107 8.533 21.76 0.427 29.867z" />
<glyph unicode="&#xe935;" glyph-name="log-out-light-theme" d="M213.333 746.667h256c23.467 0 42.667 19.2 42.667 42.667v0c0 23.467-19.2 42.667-42.667 42.667h-256c-46.933 0-85.333-38.4-85.333-85.333v-597.333c0-46.933 38.4-85.333 85.333-85.333h256c23.467 0 42.667 19.2 42.667 42.667v0c0 23.467-19.2 42.667-42.667 42.667h-256v597.333zM881.067 462.933l-119.040 119.040c-13.653 13.653-36.693 4.267-36.693-14.933v-76.373h-298.667c-23.467 0-42.667-19.2-42.667-42.667v0c0-23.467 19.2-42.667 42.667-42.667h298.667v-76.373c0-19.2 23.040-28.587 36.267-14.933l119.040 119.040c8.533 8.107 8.533 21.76 0.427 29.867z" />
<glyph unicode="&#xe936;" glyph-name="paste-dark-theme" d="M896 704c70.692 0 128-57.308 128-128v-256c0-70.692-57.308-128-128-128h-768c-70.692 0-128 57.308-128 128v256c0 70.692 57.308 128 128 128h768zM514.661 533.333c-37.928 0-65.719-20.107-65.55-50.268-0.084-24.485 17.908-38.511 47.136-45.241l18.837-4.54c18.837-4.378 29.312-9.567 29.396-20.756-0.084-12.162-12.080-20.431-30.663-20.431-19.006 0-32.691 8.432-33.873 25.053h-35.394c0.929-35.917 27.707-54.484 69.69-54.484 42.236 0 67.071 19.377 67.155 49.781-0.084 27.647-21.794 42.322-51.866 48.808l-15.543 3.567c-15.036 3.324-27.622 8.675-27.369 20.594 0 10.702 9.883 18.567 27.791 18.567 17.486 0 28.214-7.621 29.565-20.675h35.056c-0.507 29.593-25.849 50.024-64.368 50.024zM881.44 531.063h-116.572v-166.045h116.91v28.944h-80.333v39.647h73.998v28.944h-73.998v39.565h79.995v28.944zM210.476 531.063h-68.254v-166.045h36.577v53.835h30.748l5.57 0.154c36.368 2.040 57.362 24.208 57.362 55.789 0 32.998-22.723 56.267-62.003 56.267v0zM373.761 531.063h-47.136l-59.722-166.045h39.195l12.84 37.863h62.425l12.84-37.863h39.195l-59.637 166.045zM741.385 531.063h-142.082v-28.944h52.964v-137.101h36.154v137.101h52.964v28.944zM350.869 493.119l21.287-62.835h-43.926l21.287 62.835h1.352zM203.465 502.362c21.118 0 31.339-11.026 31.339-27.566 0-16.459-10.221-27.809-31.17-27.809v0h-24.835v55.375z" />
<glyph unicode="&#xe937;" glyph-name="paste-light-theme" d="M896 704c70.692 0 128-57.308 128-128v-256c0-70.692-57.308-128-128-128h-768c-70.692 0-128 57.308-128 128v256c0 70.692 57.308 128 128 128h768zM514.661 533.333c-37.928 0-65.719-20.107-65.55-50.268-0.084-24.485 17.908-38.511 47.136-45.241l18.837-4.54c18.837-4.378 29.312-9.567 29.396-20.756-0.084-12.162-12.080-20.431-30.663-20.431-19.006 0-32.691 8.432-33.873 25.053h-35.394c0.929-35.917 27.707-54.484 69.69-54.484 42.236 0 67.071 19.377 67.155 49.781-0.084 27.647-21.794 42.322-51.866 48.808l-15.543 3.567c-15.036 3.324-27.622 8.675-27.369 20.594 0 10.702 9.883 18.567 27.791 18.567 17.486 0 28.214-7.621 29.565-20.675h35.056c-0.507 29.593-25.849 50.024-64.368 50.024zM881.44 531.063h-116.572v-166.045h116.91v28.944h-80.333v39.647h73.998v28.944h-73.998v39.565h79.995v28.944zM210.476 531.063h-68.254v-166.045h36.577v53.835h30.748l5.57 0.154c36.368 2.040 57.362 24.208 57.362 55.789 0 32.998-22.723 56.267-62.003 56.267v0zM373.761 531.063h-47.136l-59.722-166.045h39.195l12.84 37.863h62.425l12.84-37.863h39.195l-59.637 166.045zM741.385 531.063h-142.082v-28.944h52.964v-137.101h36.154v137.101h52.964v28.944zM350.869 493.119h-1.352l-21.287-62.835h43.926l-21.287 62.835zM178.799 502.362v-55.375h24.835c20.949 0 31.17 11.351 31.17 27.809 0 16.54-10.221 27.566-31.339 27.566z" />
<glyph unicode="&#xe938;" glyph-name="powercard-dark-theme" d="M512 223.147l220.587-133.12c16.213-9.813 36.267 4.693 32 23.040l-58.453 250.88 194.56 168.533c14.080 12.373 6.827 35.84-12.373 37.547l-256.427 21.76-100.267 236.373c-7.253 17.493-32 17.493-39.253 0l-100.267-236.373-256.427-21.76c-18.773-1.707-26.453-25.173-11.947-37.547l194.56-168.533-58.453-250.88c-4.267-18.347 15.787-32.853 32-23.040l220.16 133.12z" />
<glyph unicode="&#xe939;" glyph-name="powercard-light-theme" d="M512 223.147l220.587-133.12c16.213-9.813 36.267 4.693 32 23.040l-58.453 250.88 194.56 168.533c14.080 12.373 6.827 35.84-12.373 37.547l-256.427 21.76-100.267 236.373c-7.253 17.493-32 17.493-39.253 0l-100.267-236.373-256.427-21.76c-18.773-1.707-26.453-25.173-11.947-37.547l194.56-168.533-58.453-250.88c-4.267-18.347 15.787-32.853 32-23.040l220.16 133.12z" />
<glyph unicode="&#xe93a;" glyph-name="proposal-details-dark-theme" d="M768 440.32l-64-69.973 85.333-93.013h-554.667l85.333 93.013-64 69.973-128-139.52v-194.133c0-46.933 38.4-85.333 85.333-85.333h597.333c46.933 0 85.333 38.4 85.333 85.333v193.707l-128 139.947zM451.84 344.747c33.28-33.707 87.467-34.133 121.173-0.427l212.48 212.48c33.28 33.28 33.28 87.467 0 120.747l-151.040 150.613c-33.28 33.28-87.467 33.28-120.747 0l-211.2-211.2c-33.28-33.28-33.28-86.613-0.427-120.32l149.76-151.893zM574.293 768l150.613-150.613-210.773-210.773-150.613 150.613 210.773 210.773z" />
<glyph unicode="&#xe93b;" glyph-name="proposal-details-light-theme" d="M768 440.32l-64-69.973 85.333-93.013h-554.667l85.333 93.013-64 69.973-128-139.52v-194.133c0-46.933 38.4-85.333 85.333-85.333h597.333c46.933 0 85.333 38.4 85.333 85.333v193.707l-128 139.947zM451.84 344.747c33.28-33.707 87.467-34.133 121.173-0.427l212.48 212.48c33.28 33.28 33.28 87.467 0 120.747l-151.040 150.613c-33.28 33.28-87.467 33.28-120.747 0l-211.2-211.2c-33.28-33.28-33.28-86.613-0.427-120.32l149.76-151.893zM574.293 768l150.613-150.613-210.773-210.773-150.613 150.613 210.773 210.773z" />
<glyph unicode="&#xe93c;" glyph-name="redeem-item-dark-theme" d="M853.333 704h-93.013c4.693 13.227 7.68 27.733 7.68 42.667 0 70.827-57.173 128-128 128-44.8 0-83.627-23.040-106.667-57.6l-21.333-28.587-21.333 29.013c-23.040 34.133-61.867 57.173-106.667 57.173-70.827 0-128-57.173-128-128 0-14.933 2.987-29.44 7.68-42.667h-93.013c-47.36 0-84.907-37.973-84.907-85.333l-0.427-469.333c0-47.36 37.973-85.333 85.333-85.333h682.667c47.36 0 85.333 37.973 85.333 85.333v469.333c0 47.36-37.973 85.333-85.333 85.333zM640 789.333c23.467 0 42.667-19.2 42.667-42.667s-19.2-42.667-42.667-42.667c-23.467 0-42.667 19.2-42.667 42.667s19.2 42.667 42.667 42.667zM384 789.333c23.467 0 42.667-19.2 42.667-42.667s-19.2-42.667-42.667-42.667c-23.467 0-42.667 19.2-42.667 42.667s19.2 42.667 42.667 42.667zM810.667 149.333h-597.333c-23.467 0-42.667 19.2-42.667 42.667v42.667h682.667v-42.667c0-23.467-19.2-42.667-42.667-42.667zM853.333 362.667h-682.667v213.333c0 23.467 19.2 42.667 42.667 42.667h174.080l-63.147-86.187c-14.080-19.2-9.813-46.080 9.387-59.733 18.773-13.653 45.653-9.387 59.307 9.387l119.040 162.133 119.040-162.133c13.653-18.773 40.533-23.040 59.307-9.387 19.2 13.653 23.467 40.533 9.387 59.733l-63.147 86.187h174.080c23.467 0 42.667-19.2 42.667-42.667v-213.333z" />
<glyph unicode="&#xe93d;" glyph-name="redeem-item-light-theme" d="M853.333 704h-93.013c4.693 13.227 7.68 27.733 7.68 42.667 0 70.827-57.173 128-128 128-44.8 0-83.627-23.040-106.667-57.6l-21.333-28.587-21.333 29.013c-23.040 34.133-61.867 57.173-106.667 57.173-70.827 0-128-57.173-128-128 0-14.933 2.987-29.44 7.68-42.667h-93.013c-47.36 0-84.907-37.973-84.907-85.333l-0.427-469.333c0-47.36 37.973-85.333 85.333-85.333h682.667c47.36 0 85.333 37.973 85.333 85.333v469.333c0 47.36-37.973 85.333-85.333 85.333zM640 789.333c23.467 0 42.667-19.2 42.667-42.667s-19.2-42.667-42.667-42.667c-23.467 0-42.667 19.2-42.667 42.667s19.2 42.667 42.667 42.667zM384 789.333c23.467 0 42.667-19.2 42.667-42.667s-19.2-42.667-42.667-42.667c-23.467 0-42.667 19.2-42.667 42.667s19.2 42.667 42.667 42.667zM810.667 149.333h-597.333c-23.467 0-42.667 19.2-42.667 42.667v42.667h682.667v-42.667c0-23.467-19.2-42.667-42.667-42.667zM853.333 362.667h-682.667v213.333c0 23.467 19.2 42.667 42.667 42.667h174.080l-63.147-86.187c-14.080-19.2-9.813-46.080 9.387-59.733 18.773-13.653 45.653-9.387 59.307 9.387l119.040 162.133 119.040-162.133c13.653-18.773 40.533-23.040 59.307-9.387 19.2 13.653 23.467 40.533 9.387 59.733l-63.147 86.187h174.080c23.467 0 42.667-19.2 42.667-42.667v-213.333z" />
<glyph unicode="&#xe93e;" glyph-name="search-dark-theme" d="M661.333 362.667h-33.707l-11.947 11.52c41.813 48.64 66.987 111.787 66.987 180.48 0 153.173-124.16 277.333-277.333 277.333s-277.333-124.16-277.333-277.333c0-153.173 124.16-277.333 277.333-277.333 68.693 0 131.84 25.173 180.48 66.987l11.52-11.947v-33.707l213.333-212.907 63.573 63.573-212.907 213.333zM405.333 362.667c-106.24 0-192 85.76-192 192s85.76 192 192 192c106.24 0 192-85.76 192-192s-85.76-192-192-192z" />
<glyph unicode="&#xe93f;" glyph-name="search-light-theme" d="M661.333 362.667h-33.707l-11.947 11.52c41.813 48.64 66.987 111.787 66.987 180.48 0 153.173-124.16 277.333-277.333 277.333s-277.333-124.16-277.333-277.333c0-153.173 124.16-277.333 277.333-277.333 68.693 0 131.84 25.173 180.48 66.987l11.52-11.947v-33.707l213.333-212.907 63.573 63.573-212.907 213.333zM405.333 362.667c-106.24 0-192 85.76-192 192s85.76 192 192 192c106.24 0 192-85.76 192-192s-85.76-192-192-192z" />
<glyph unicode="&#xe940;" glyph-name="select-option-dark-theme" d="M786.766 606.369c-11.208-11.008-28.462-12.086-40.855-3.335l-4.398 3.743-229.511 233.686-229.521-233.686c-12.384-12.609-32.644-12.792-45.253-0.408-11.208 11.008-12.598 28.239-4.071 40.788l3.663 4.465 248.040 252.554c7.349 7.483 17.473 10.589 27.125 9.29 7.824 1.066 16.007-0.785 22.75-5.547l4.398-3.743 248.040-252.554c12.384-12.609 12.201-32.869-0.408-45.253zM237.229 264.589c11.208 11.008 28.462 12.086 40.855 3.335l4.398-3.743 229.511-233.686 229.521 233.686c12.384 12.609 32.644 12.792 45.253 0.408 11.208-11.008 12.598-28.239 4.071-40.788l-3.663-4.465-248.040-252.554c-7.349-7.483-17.473-10.589-27.125-9.29-7.824-1.066-16.007 0.785-22.75 5.547l-4.398 3.743-248.040 252.554c-12.384 12.609-12.201 32.869 0.408 45.253z" />
<glyph unicode="&#xe941;" glyph-name="select-option-light-theme" d="M786.766 606.369c-11.208-11.008-28.462-12.086-40.855-3.335l-4.398 3.743-229.511 233.686-229.521-233.686c-12.384-12.609-32.644-12.792-45.253-0.408-11.208 11.008-12.598 28.239-4.071 40.788l3.663 4.465 248.040 252.554c7.349 7.483 17.473 10.589 27.125 9.29 7.824 1.066 16.007-0.785 22.75-5.547l4.398-3.743 248.040-252.554c12.384-12.609 12.201-32.869-0.408-45.253zM237.229 264.589c11.208 11.008 28.462 12.086 40.855 3.335l4.398-3.743 229.511-233.686 229.521 233.686c12.384 12.609 32.644 12.792 45.253 0.408 11.208-11.008 12.598-28.239 4.071-40.788l-3.663-4.465-248.040-252.554c-7.349-7.483-17.473-10.589-27.125-9.29-7.824-1.066-16.007 0.785-22.75 5.547l-4.398 3.743-248.040 252.554c-12.384 12.609-12.201 32.869 0.408 45.253z" />
<glyph unicode="&#xe942;" glyph-name="swap-tokens-dark-theme" d="M261.973 453.973l-118.613-119.040c-8.107-8.533-8.107-21.76 0-30.293l118.613-119.040c13.227-13.653 36.267-3.84 36.267 14.933v76.8h256.427c23.467 0 42.667 19.2 42.667 42.667s-19.2 42.667-42.667 42.667h-256.427v76.373c0 19.2-23.040 28.587-36.267 14.933v0zM881.067 590.933l-118.613 119.040c-13.227 13.653-36.267 3.84-36.267-14.933v-76.373h-256.853c-23.467 0-42.667-19.2-42.667-42.667s19.2-42.667 42.667-42.667h256.427v-76.373c0-19.2 23.040-28.587 36.267-14.933l118.613 119.040c8.533 8.107 8.533 21.76 0.427 29.867v0z" />
<glyph unicode="&#xe943;" glyph-name="swap-tokens-light-theme" d="M261.973 453.973l-118.613-119.040c-8.107-8.533-8.107-21.76 0-30.293l118.613-119.040c13.227-13.653 36.267-3.84 36.267 14.933v76.8h256.427c23.467 0 42.667 19.2 42.667 42.667s-19.2 42.667-42.667 42.667h-256.427v76.373c0 19.2-23.040 28.587-36.267 14.933v0zM881.067 590.933l-118.613 119.040c-13.227 13.653-36.267 3.84-36.267-14.933v-76.373h-256.853c-23.467 0-42.667-19.2-42.667-42.667s19.2-42.667 42.667-42.667h256.427v-76.373c0-19.2 23.040-28.587 36.267-14.933l118.613 119.040c8.533 8.107 8.533 21.76 0.427 29.867v0z" />
<glyph unicode="&#xe944;" glyph-name="system-mode-off-dark-theme" d="M512 874.667c-235.947 0-426.667-190.72-426.667-426.667s190.72-426.667 426.667-426.667c235.947 0 426.667 190.72 426.667 426.667s-190.72 426.667-426.667 426.667z" />
<glyph unicode="&#xe945;" glyph-name="system-mode-off-light-theme" d="M512 874.667c-235.947 0-426.667-190.72-426.667-426.667s190.72-426.667 426.667-426.667c235.947 0 426.667 190.72 426.667 426.667s-190.72 426.667-426.667 426.667z" />
<glyph unicode="&#xe946;" glyph-name="system-mode-on-dark-theme" d="M512 874.667c-235.947 0-426.667-190.72-426.667-426.667s190.72-426.667 426.667-426.667c235.947 0 426.667 190.72 426.667 426.667s-190.72 426.667-426.667 426.667z" />
<glyph unicode="&#xe947;" glyph-name="system-mode-on-light-theme" d="M512 874.667c-235.947 0-426.667-190.72-426.667-426.667s190.72-426.667 426.667-426.667c235.947 0 426.667 190.72 426.667 426.667s-190.72 426.667-426.667 426.667z" />
<glyph unicode="&#xe948;" glyph-name="transaction-history-dark-theme" d="M170.667 405.333c23.467 0 42.667 19.2 42.667 42.667s-19.2 42.667-42.667 42.667c-23.467 0-42.667-19.2-42.667-42.667s19.2-42.667 42.667-42.667zM170.667 234.667c23.467 0 42.667 19.2 42.667 42.667s-19.2 42.667-42.667 42.667c-23.467 0-42.667-19.2-42.667-42.667s19.2-42.667 42.667-42.667zM170.667 576c23.467 0 42.667 19.2 42.667 42.667s-19.2 42.667-42.667 42.667c-23.467 0-42.667-19.2-42.667-42.667s19.2-42.667 42.667-42.667zM341.333 405.333h512c23.467 0 42.667 19.2 42.667 42.667s-19.2 42.667-42.667 42.667h-512c-23.467 0-42.667-19.2-42.667-42.667s19.2-42.667 42.667-42.667zM341.333 234.667h512c23.467 0 42.667 19.2 42.667 42.667s-19.2 42.667-42.667 42.667h-512c-23.467 0-42.667-19.2-42.667-42.667s19.2-42.667 42.667-42.667zM298.667 618.667c0-23.467 19.2-42.667 42.667-42.667h512c23.467 0 42.667 19.2 42.667 42.667s-19.2 42.667-42.667 42.667h-512c-23.467 0-42.667-19.2-42.667-42.667zM170.667 405.333c23.467 0 42.667 19.2 42.667 42.667s-19.2 42.667-42.667 42.667c-23.467 0-42.667-19.2-42.667-42.667s19.2-42.667 42.667-42.667zM170.667 234.667c23.467 0 42.667 19.2 42.667 42.667s-19.2 42.667-42.667 42.667c-23.467 0-42.667-19.2-42.667-42.667s19.2-42.667 42.667-42.667zM170.667 576c23.467 0 42.667 19.2 42.667 42.667s-19.2 42.667-42.667 42.667c-23.467 0-42.667-19.2-42.667-42.667s19.2-42.667 42.667-42.667zM341.333 405.333h512c23.467 0 42.667 19.2 42.667 42.667s-19.2 42.667-42.667 42.667h-512c-23.467 0-42.667-19.2-42.667-42.667s19.2-42.667 42.667-42.667zM341.333 234.667h512c23.467 0 42.667 19.2 42.667 42.667s-19.2 42.667-42.667 42.667h-512c-23.467 0-42.667-19.2-42.667-42.667s19.2-42.667 42.667-42.667zM298.667 618.667c0-23.467 19.2-42.667 42.667-42.667h512c23.467 0 42.667 19.2 42.667 42.667s-19.2 42.667-42.667 42.667h-512c-23.467 0-42.667-19.2-42.667-42.667z" />
<glyph unicode="&#xe949;" glyph-name="transaction-history-light-theme" d="M170.667 405.333c23.467 0 42.667 19.2 42.667 42.667s-19.2 42.667-42.667 42.667c-23.467 0-42.667-19.2-42.667-42.667s19.2-42.667 42.667-42.667zM170.667 234.667c23.467 0 42.667 19.2 42.667 42.667s-19.2 42.667-42.667 42.667c-23.467 0-42.667-19.2-42.667-42.667s19.2-42.667 42.667-42.667zM170.667 576c23.467 0 42.667 19.2 42.667 42.667s-19.2 42.667-42.667 42.667c-23.467 0-42.667-19.2-42.667-42.667s19.2-42.667 42.667-42.667zM341.333 405.333h512c23.467 0 42.667 19.2 42.667 42.667s-19.2 42.667-42.667 42.667h-512c-23.467 0-42.667-19.2-42.667-42.667s19.2-42.667 42.667-42.667zM341.333 234.667h512c23.467 0 42.667 19.2 42.667 42.667s-19.2 42.667-42.667 42.667h-512c-23.467 0-42.667-19.2-42.667-42.667s19.2-42.667 42.667-42.667zM298.667 618.667c0-23.467 19.2-42.667 42.667-42.667h512c23.467 0 42.667 19.2 42.667 42.667s-19.2 42.667-42.667 42.667h-512c-23.467 0-42.667-19.2-42.667-42.667zM170.667 405.333c23.467 0 42.667 19.2 42.667 42.667s-19.2 42.667-42.667 42.667c-23.467 0-42.667-19.2-42.667-42.667s19.2-42.667 42.667-42.667zM170.667 234.667c23.467 0 42.667 19.2 42.667 42.667s-19.2 42.667-42.667 42.667c-23.467 0-42.667-19.2-42.667-42.667s19.2-42.667 42.667-42.667zM170.667 576c23.467 0 42.667 19.2 42.667 42.667s-19.2 42.667-42.667 42.667c-23.467 0-42.667-19.2-42.667-42.667s19.2-42.667 42.667-42.667zM341.333 405.333h512c23.467 0 42.667 19.2 42.667 42.667s-19.2 42.667-42.667 42.667h-512c-23.467 0-42.667-19.2-42.667-42.667s19.2-42.667 42.667-42.667zM341.333 234.667h512c23.467 0 42.667 19.2 42.667 42.667s-19.2 42.667-42.667 42.667h-512c-23.467 0-42.667-19.2-42.667-42.667s19.2-42.667 42.667-42.667zM298.667 618.667c0-23.467 19.2-42.667 42.667-42.667h512c23.467 0 42.667 19.2 42.667 42.667s-19.2 42.667-42.667 42.667h-512c-23.467 0-42.667-19.2-42.667-42.667z" />
<glyph unicode="&#xe94a;" glyph-name="vote-against-dark-theme" d="M464.213 23.893l235.947 236.373c15.787 15.787 24.747 37.547 24.747 60.16v426.24c0 46.933-38.4 85.333-85.333 85.333h-383.573c-34.133 0-64.853-20.48-78.080-51.627l-139.093-324.693c-36.267-84.48 25.6-178.347 117.333-178.347h241.067l-40.533-195.413c-4.267-21.333 2.133-43.093 17.493-58.453 25.173-24.747 65.28-24.747 90.027 0.427v0zM896 832c-46.933 0-85.333-38.4-85.333-85.333v-341.333c0-46.933 38.4-85.333 85.333-85.333s85.333 38.4 85.333 85.333v341.333c0 46.933-38.4 85.333-85.333 85.333z" />
<glyph unicode="&#xe94b;" glyph-name="vote-against-light-theme" d="M464.213 23.893l235.947 236.373c15.787 15.787 24.747 37.547 24.747 60.16v426.24c0 46.933-38.4 85.333-85.333 85.333h-383.573c-34.133 0-64.853-20.48-78.080-51.627l-139.093-324.693c-36.267-84.48 25.6-178.347 117.333-178.347h241.067l-40.533-195.413c-4.267-21.333 2.133-43.093 17.493-58.453 25.173-24.747 65.28-24.747 90.027 0.427v0zM896 832c-46.933 0-85.333-38.4-85.333-85.333v-341.333c0-46.933 38.4-85.333 85.333-85.333s85.333 38.4 85.333 85.333v341.333c0 46.933-38.4 85.333-85.333 85.333z" />
<glyph unicode="&#xe94c;" glyph-name="vote-for-dark-theme" d="M559.787 872.107l-236.373-236.373c-15.787-15.787-24.747-37.547-24.747-60.16v-426.24c0-46.933 38.4-85.333 85.333-85.333h384c34.133 0 64.853 20.48 78.507 51.627l139.093 324.693c35.84 84.48-26.027 178.347-117.76 178.347h-241.067l40.533 195.413c4.267 21.333-2.133 43.093-17.493 58.453-25.173 24.747-65.28 24.747-90.027-0.427zM128 64c46.933 0 85.333 38.4 85.333 85.333v341.333c0 46.933-38.4 85.333-85.333 85.333s-85.333-38.4-85.333-85.333v-341.333c0-46.933 38.4-85.333 85.333-85.333z" />
<glyph unicode="&#xe94d;" glyph-name="vote-for-light-theme" d="M559.787 872.107l-236.373-236.373c-15.787-15.787-24.747-37.547-24.747-60.16v-426.24c0-46.933 38.4-85.333 85.333-85.333h384c34.133 0 64.853 20.48 78.507 51.627l139.093 324.693c35.84 84.48-26.027 178.347-117.76 178.347h-241.067l40.533 195.413c4.267 21.333-2.133 43.093-17.493 58.453-25.173 24.747-65.28 24.747-90.027-0.427zM128 64c46.933 0 85.333 38.4 85.333 85.333v341.333c0 46.933-38.4 85.333-85.333 85.333s-85.333-38.4-85.333-85.333v-341.333c0-46.933 38.4-85.333 85.333-85.333z" />
<glyph unicode="&#xe94e;" glyph-name="withdraw-dark-theme" d="M755.627 264.96l153.173 153.173c16.64 16.64 16.64 43.52 0 60.16l-153.173 153.173c-16.64 16.64-43.52 16.64-60.16 0v0c-16.64-16.64-16.64-43.52 0-60.16l79.787-80.64h-348.587c-23.467 0-42.667-19.2-42.667-42.667v0c0-23.467 19.2-42.667 42.667-42.667h348.587l-80.213-80.213c-16.64-16.64-16.64-43.52 0-60.16v0c16.64-16.64 43.947-16.64 60.587 0zM810.667 149.333h-597.333v597.333h597.333v-42.667c0-23.467 19.2-42.667 42.667-42.667v0c23.467 0 42.667 19.2 42.667 42.667v42.667c0 46.933-38.4 85.333-85.333 85.333h-597.333c-46.933 0-85.333-38.4-85.333-85.333v-597.333c0-46.933 38.4-85.333 85.333-85.333h597.333c47.36 0 85.333 38.4 85.333 85.333v42.667c0 23.467-19.2 42.667-42.667 42.667v0c-23.467 0-42.667-19.2-42.667-42.667v-42.667z" />
<glyph unicode="&#xe94f;" glyph-name="withdraw-light-theme" d="M755.627 264.96l153.173 153.173c16.64 16.64 16.64 43.52 0 60.16l-153.173 153.173c-16.64 16.64-43.52 16.64-60.16 0v0c-16.64-16.64-16.64-43.52 0-60.16l79.787-80.64h-348.587c-23.467 0-42.667-19.2-42.667-42.667v0c0-23.467 19.2-42.667 42.667-42.667h348.587l-80.213-80.213c-16.64-16.64-16.64-43.52 0-60.16v0c16.64-16.64 43.947-16.64 60.587 0zM810.667 149.333h-597.333v597.333h597.333v-42.667c0-23.467 19.2-42.667 42.667-42.667v0c23.467 0 42.667 19.2 42.667 42.667v42.667c0 46.933-38.4 85.333-85.333 85.333h-597.333c-46.933 0-85.333-38.4-85.333-85.333v-597.333c0-46.933 38.4-85.333 85.333-85.333h597.333c47.36 0 85.333 38.4 85.333 85.333v42.667c0 23.467-19.2 42.667-42.667 42.667v0c-23.467 0-42.667-19.2-42.667-42.667v-42.667z" />
</font>
</defs>
</svg>
