<?xml version="1.0" standalone="no"?>
<!DOCTYPE svg PUBLIC "-//W3C//DTD SVG 20010904//EN"
 "http://www.w3.org/TR/2001/REC-SVG-20010904/DTD/svg10.dtd">
<svg version="1.0" xmlns="http://www.w3.org/2000/svg"
 width="3240.000000pt" height="3240.000000pt" viewBox="0 0 3240.000000 3240.000000"
 preserveAspectRatio="xMidYMid meet">
<metadata>
Created by potrace 1.14, written by Peter Selinger 2001-2017
</metadata>
<g transform="translate(0.000000,3240.000000) scale(0.100000,-0.100000)"
fill="#000000" stroke="none">
<path d="M24798 30595 c-45 -15 -69 -30 -173 -109 -94 -71 -278 -216 -285
-225 -3 -3 -23 -19 -45 -36 -22 -16 -42 -32 -45 -35 -3 -3 -57 -48 -120 -100
-63 -52 -131 -108 -151 -124 -35 -31 -67 -57 -150 -127 -85 -72 -194 -164
-199 -169 -3 -3 -32 -27 -65 -55 -33 -27 -66 -55 -73 -62 -7 -7 -34 -29 -60
-50 -26 -21 -51 -43 -57 -49 -5 -6 -75 -67 -155 -135 -80 -68 -147 -126 -150
-129 -3 -3 -61 -55 -130 -115 -69 -60 -130 -114 -136 -120 -6 -5 -41 -37 -79
-70 -114 -101 -213 -193 -370 -346 -82 -81 -197 -188 -255 -239 -58 -51 -107
-96 -110 -99 -3 -4 -66 -60 -140 -126 -74 -66 -142 -127 -151 -135 -9 -8 -34
-31 -55 -51 -21 -19 -64 -57 -94 -84 -76 -67 -210 -186 -235 -210 -30 -28
-174 -157 -208 -186 -16 -13 -43 -37 -61 -54 -27 -26 -150 -136 -207 -186 -29
-25 -244 -217 -278 -249 -9 -8 -98 -87 -196 -175 -99 -87 -196 -174 -215 -191
-19 -18 -47 -42 -61 -55 -15 -13 -44 -40 -66 -59 -21 -19 -76 -69 -123 -110
-201 -178 -358 -318 -459 -409 -46 -42 -93 -84 -105 -94 -20 -17 -85 -75 -195
-172 -25 -22 -52 -47 -61 -55 -9 -8 -51 -46 -95 -85 -79 -70 -148 -131 -169
-150 -9 -8 -263 -234 -516 -459 -33 -29 -211 -188 -236 -211 -22 -20 -154
-138 -172 -154 -11 -9 -52 -45 -92 -81 -40 -36 -81 -72 -90 -80 -30 -26 -154
-137 -181 -161 -14 -13 -54 -49 -89 -79 -35 -30 -71 -62 -79 -71 -9 -8 -140
-125 -291 -258 -151 -134 -284 -253 -295 -265 -11 -11 -36 -34 -55 -50 -40
-32 -159 -138 -199 -176 -15 -14 -56 -50 -91 -80 -35 -30 -73 -64 -85 -75 -29
-28 -172 -155 -220 -196 -22 -19 -44 -39 -50 -45 -5 -6 -134 -121 -285 -255
-280 -248 -334 -296 -354 -314 -6 -6 -54 -49 -106 -95 -52 -47 -97 -87 -100
-90 -3 -3 -126 -113 -275 -245 -295 -261 -324 -288 -365 -325 -15 -14 -60 -54
-101 -90 -40 -36 -99 -87 -129 -115 -74 -66 -209 -186 -230 -205 -19 -17 -161
-143 -196 -175 -12 -11 -50 -45 -84 -75 -35 -30 -75 -66 -90 -80 -15 -14 -103
-92 -196 -175 -93 -82 -176 -157 -185 -165 -8 -8 -51 -46 -94 -85 -43 -38 -83
-74 -89 -80 -6 -5 -72 -64 -146 -129 -74 -66 -142 -127 -151 -135 -9 -9 -31
-29 -50 -46 -36 -31 -206 -183 -225 -200 -6 -5 -46 -41 -89 -80 -44 -38 -107
-95 -140 -125 -34 -30 -79 -71 -101 -90 -21 -19 -84 -75 -139 -125 -55 -49
-115 -104 -135 -121 -101 -89 -260 -232 -295 -265 -22 -20 -67 -60 -100 -89
-33 -30 -100 -90 -150 -134 -49 -45 -116 -105 -150 -135 -33 -30 -62 -57 -65
-60 -3 -3 -43 -40 -90 -81 -47 -41 -87 -77 -90 -80 -3 -3 -45 -41 -95 -85 -49
-44 -97 -87 -105 -95 -8 -8 -58 -53 -110 -100 -52 -47 -100 -89 -106 -95 -11
-10 -178 -162 -198 -180 -70 -63 -232 -211 -236 -215 -3 -3 -63 -59 -135 -125
-276 -253 -602 -573 -675 -661 -87 -105 -109 -188 -71 -269 38 -83 94 -119
186 -119 53 -1 82 8 235 72 96 41 199 85 228 98 29 13 54 24 57 24 2 0 33 14
68 30 36 17 68 30 70 30 3 0 95 39 204 86 109 47 277 120 373 161 212 91 221
95 290 126 30 14 84 37 120 52 36 15 115 49 175 75 61 27 162 71 225 98 63 28
340 148 615 267 275 119 514 223 530 230 17 8 116 51 220 96 105 44 210 90
234 101 53 24 409 179 501 218 72 30 371 161 435 190 22 10 139 60 260 113
121 52 240 103 265 114 25 11 59 26 75 33 32 13 1338 578 1415 611 78 35 86
38 190 83 110 46 510 220 535 231 17 8 131 57 255 110 449 193 466 201 555
241 17 7 255 110 530 229 275 118 516 223 535 231 19 9 122 54 229 100 107 47
209 91 227 99 19 8 49 22 68 30 65 29 432 188 501 217 39 17 98 43 133 59 35
16 65 29 67 29 3 0 28 11 57 24 29 13 99 45 156 70 167 74 383 216 762 502
150 113 494 378 540 417 8 7 107 86 220 177 113 90 214 172 225 181 11 10 88
73 170 140 83 68 152 126 155 129 3 3 30 25 60 50 30 25 57 47 60 50 3 3 32
28 65 55 84 70 656 557 681 580 6 5 35 30 65 55 97 81 394 334 399 340 3 3 46
39 95 80 50 41 92 77 95 80 3 3 70 61 150 129 80 68 168 143 195 166 83 71 92
79 117 99 19 16 101 86 222 189 11 11 41 35 65 55 24 21 54 46 67 57 12 11 43
38 70 60 26 22 82 69 124 105 42 36 100 85 129 110 30 25 59 50 65 55 6 6 55
48 109 94 l99 84 -5 1956 c-3 1076 -7 2030 -10 2121 -9 253 -17 479 -22 566
-2 44 -7 133 -10 199 -4 66 -8 136 -10 155 -2 19 -6 67 -9 105 -25 265 -83
364 -221 371 -27 1 -67 -4 -87 -11z"/>
<path d="M22445 30112 c-60 -12 -638 -229 -750 -282 -11 -5 -126 -53 -255
-105 -129 -53 -248 -102 -265 -110 -16 -7 -81 -34 -144 -59 -62 -26 -133 -55
-157 -66 -23 -11 -49 -20 -56 -20 -8 0 -18 -4 -24 -9 -5 -4 -72 -34 -149 -66
-186 -76 -512 -213 -550 -230 -16 -7 -55 -23 -85 -35 -30 -12 -68 -28 -85 -35
-16 -8 -181 -77 -365 -153 -184 -77 -434 -181 -555 -232 -244 -102 -328 -137
-955 -400 -239 -100 -454 -190 -477 -201 -23 -10 -45 -19 -48 -19 -3 0 -25 -9
-48 -19 -23 -10 -152 -65 -287 -121 -135 -56 -263 -111 -284 -121 -22 -11 -44
-19 -48 -19 -5 0 -30 -10 -56 -22 -51 -23 -207 -88 -287 -120 -27 -11 -54 -23
-60 -27 -5 -4 -32 -16 -60 -26 -27 -10 -68 -26 -90 -35 -67 -29 -218 -93 -475
-200 -135 -56 -264 -111 -287 -121 -24 -11 -55 -24 -70 -30 -36 -13 -854 -355
-913 -381 -69 -30 -312 -132 -485 -203 -49 -20 -103 -43 -120 -50 -16 -8 -102
-44 -190 -80 -88 -37 -173 -73 -190 -80 -16 -7 -86 -36 -155 -65 -69 -28 -139
-58 -157 -66 -17 -8 -34 -14 -37 -14 -3 0 -29 -11 -58 -24 -29 -13 -174 -74
-323 -136 -285 -118 -303 -126 -377 -159 -26 -12 -49 -21 -52 -21 -3 0 -29
-11 -58 -24 -29 -13 -93 -40 -143 -60 -49 -20 -99 -41 -110 -46 -11 -5 -69
-30 -130 -55 -60 -25 -119 -50 -130 -54 -11 -5 -36 -16 -55 -24 -19 -8 -246
-104 -505 -212 -258 -109 -488 -205 -510 -215 -22 -10 -166 -70 -320 -135
-154 -65 -298 -125 -320 -135 -22 -10 -134 -57 -250 -105 -115 -48 -230 -96
-255 -107 -25 -11 -54 -23 -65 -28 -11 -4 -36 -15 -55 -23 -19 -8 -145 -61
-280 -117 -135 -56 -258 -108 -275 -115 -16 -8 -183 -77 -370 -155 -187 -78
-358 -150 -380 -160 -22 -9 -134 -57 -250 -104 -115 -48 -226 -94 -245 -103
-52 -23 -82 -36 -220 -93 -69 -29 -138 -58 -155 -65 -40 -18 -302 -127 -500
-210 -88 -36 -173 -72 -190 -79 -16 -8 -86 -37 -155 -65 -69 -29 -138 -58
-155 -65 -16 -7 -41 -18 -55 -24 -35 -14 -94 -39 -132 -56 -38 -17 -316 -133
-633 -266 -121 -50 -233 -98 -250 -105 -24 -11 -695 -294 -820 -345 -16 -7
-48 -21 -70 -30 -22 -10 -80 -34 -130 -54 -49 -21 -108 -45 -130 -55 -22 -10
-107 -47 -190 -81 -82 -34 -168 -70 -190 -80 -22 -10 -78 -34 -125 -53 -47
-19 -290 -121 -540 -227 -250 -106 -495 -209 -545 -230 -49 -21 -223 -94 -385
-163 -162 -68 -308 -130 -325 -137 -16 -7 -44 -19 -61 -26 -17 -8 -107 -45
-199 -84 -92 -39 -182 -77 -199 -84 -17 -8 -182 -79 -366 -157 -184 -78 -351
-149 -370 -157 -19 -9 -37 -16 -40 -17 -10 -3 -87 -36 -330 -144 l-245 -108 0
-2024 c1 -1812 6 -2563 20 -2654 2 -16 6 -70 9 -120 14 -247 56 -386 142 -471
23 -24 60 -51 81 -60 46 -20 200 -29 220 -12 7 6 13 8 13 5 0 -7 121 35 310
106 242 91 1084 433 1238 503 29 13 55 24 57 24 3 0 24 9 48 19 23 11 182 79
352 152 171 72 333 142 360 154 28 13 205 89 395 170 190 80 363 154 385 164
22 10 69 31 105 46 36 15 79 33 95 40 17 8 134 57 260 111 127 53 248 105 270
115 22 10 85 36 140 59 55 23 114 48 130 55 17 8 107 46 200 86 696 293 1488
628 1570 664 17 7 91 39 165 70 74 31 149 63 165 70 17 8 100 43 185 78 254
106 752 317 800 339 25 11 81 35 125 53 91 37 146 61 190 80 17 8 266 113 555
235 289 122 539 228 555 235 17 7 116 49 220 93 105 44 341 144 525 222 184
79 360 153 390 165 30 12 264 111 520 220 256 108 566 239 690 292 124 52 239
101 255 108 17 8 51 23 76 33 35 15 184 135 239 192 3 3 37 32 75 65 39 33 75
65 80 71 6 7 35 33 65 59 30 27 87 76 125 110 39 34 158 140 265 235 107 95
215 191 240 214 25 22 81 72 125 111 44 38 85 74 91 80 6 5 44 39 85 75 40 36
94 83 119 106 25 22 60 54 79 70 18 16 43 38 55 49 12 11 53 47 91 80 38 33
78 69 91 80 12 11 37 34 56 50 18 17 74 66 123 110 49 44 105 94 124 110 19
17 42 37 51 45 9 8 70 62 135 120 163 143 186 163 199 175 6 6 70 62 141 125
72 63 135 119 141 125 6 5 39 35 74 65 35 30 68 60 74 65 16 14 179 159 261
230 37 33 73 65 79 70 11 10 216 192 356 315 40 36 78 70 84 75 6 6 47 42 91
80 44 39 96 84 115 101 19 17 62 55 95 84 33 29 67 60 76 69 9 9 38 35 65 57
55 47 63 54 165 145 115 103 268 238 344 304 37 33 75 67 84 75 9 9 52 47 95
85 44 39 87 77 96 85 9 8 49 44 90 80 41 36 95 83 120 106 49 44 102 92 136
121 31 27 175 156 194 173 9 8 72 64 140 125 69 60 127 112 130 115 3 3 25 23
51 45 25 22 83 74 130 116 46 42 131 117 189 169 58 51 121 107 140 124 19 18
80 72 135 120 55 49 114 100 130 115 62 55 191 168 219 192 16 13 36 31 45 40
9 9 93 83 186 165 94 82 175 153 181 159 13 12 52 46 159 140 44 39 95 84 115
102 19 17 45 40 58 51 12 11 55 48 94 83 40 35 95 84 123 109 28 25 85 76 127
113 42 37 87 77 99 88 45 39 141 124 163 144 12 11 53 47 90 80 37 33 78 69
90 80 12 11 53 47 90 80 37 33 78 69 90 80 35 32 166 147 226 200 30 27 60 54
66 59 12 12 144 129 176 157 17 15 145 130 172 154 22 20 191 171 225 200 18
17 46 41 61 55 15 14 40 36 56 50 16 14 97 86 179 159 248 221 288 257 334
297 24 22 67 60 95 86 28 26 61 55 72 65 42 36 160 142 190 169 16 16 84 79
150 139 221 204 369 357 394 409 21 45 28 108 18 157 -8 34 -60 96 -99 119
-39 21 -106 31 -154 22z"/>
<path d="M31940 24474 c-49 -24 -217 -144 -309 -221 -143 -118 -309 -256 -326
-271 -11 -10 -49 -42 -85 -72 -35 -30 -69 -59 -76 -65 -6 -5 -37 -32 -69 -60
-32 -27 -63 -55 -69 -60 -6 -6 -83 -73 -171 -149 -88 -76 -176 -153 -195 -170
-54 -48 -119 -105 -195 -171 -38 -33 -76 -67 -85 -75 -9 -8 -88 -78 -175 -155
-218 -191 -226 -198 -244 -216 -9 -8 -77 -69 -151 -135 -74 -65 -140 -123
-146 -129 -6 -5 -42 -37 -79 -70 -38 -33 -73 -65 -79 -70 -6 -6 -47 -42 -91
-80 -44 -39 -84 -75 -90 -81 -5 -6 -93 -84 -195 -175 -102 -90 -190 -168 -196
-174 -10 -10 -140 -125 -174 -155 -9 -8 -55 -49 -100 -90 -46 -41 -109 -97
-140 -125 -31 -27 -96 -86 -144 -130 -49 -44 -98 -88 -110 -98 -28 -25 -147
-131 -210 -188 -28 -25 -103 -92 -166 -149 -63 -56 -150 -135 -194 -174 -43
-39 -84 -75 -90 -81 -6 -5 -54 -48 -106 -95 -52 -47 -112 -101 -134 -120 -21
-19 -49 -44 -61 -55 -13 -11 -51 -45 -85 -75 -35 -30 -68 -60 -74 -65 -10 -9
-145 -128 -331 -290 -90 -78 -302 -263 -455 -394 -74 -64 -140 -120 -146 -126
-13 -12 -9 -9 -519 -445 -220 -188 -425 -364 -455 -390 -70 -60 -455 -388
-580 -494 -52 -44 -97 -83 -100 -86 -3 -3 -32 -28 -65 -55 -33 -28 -64 -55
-70 -61 -5 -6 -100 -87 -210 -180 -110 -93 -211 -179 -225 -191 -14 -11 -144
-123 -290 -248 -146 -124 -276 -236 -290 -248 -14 -13 -54 -47 -90 -77 -36
-30 -67 -58 -70 -61 -5 -5 -418 -361 -469 -404 -14 -11 -32 -27 -41 -35 -8 -8
-47 -42 -85 -75 -38 -33 -75 -64 -81 -70 -10 -10 -115 -102 -158 -138 -71 -62
-230 -201 -236 -207 -3 -3 -41 -37 -85 -75 -44 -39 -82 -72 -85 -75 -3 -3 -41
-37 -85 -75 -44 -39 -82 -72 -85 -75 -5 -5 -153 -137 -220 -196 -19 -17 -62
-55 -96 -85 -33 -30 -95 -85 -138 -124 -44 -38 -87 -77 -96 -85 -28 -25 -170
-151 -235 -210 -34 -30 -81 -73 -106 -94 -24 -22 -66 -60 -94 -85 -27 -25 -83
-75 -124 -111 -41 -36 -79 -70 -85 -75 -6 -6 -38 -35 -71 -65 -34 -30 -99 -90
-145 -132 -47 -42 -96 -86 -109 -97 -12 -11 -57 -51 -99 -88 -41 -37 -83 -75
-92 -83 -14 -12 -167 -152 -214 -195 -6 -6 -101 -91 -211 -190 -110 -99 -218
-196 -240 -216 -22 -21 -52 -48 -66 -61 -14 -12 -68 -61 -119 -108 -52 -47
-101 -92 -110 -100 -9 -8 -58 -53 -110 -100 -52 -47 -101 -92 -110 -100 -9 -8
-61 -55 -115 -105 -55 -49 -120 -109 -145 -131 -25 -23 -74 -68 -109 -100 -35
-33 -76 -70 -91 -84 -15 -14 -67 -61 -115 -105 -49 -44 -98 -89 -110 -100 -11
-11 -43 -40 -71 -65 -43 -39 -210 -193 -294 -270 -15 -14 -69 -63 -120 -110
-51 -47 -105 -96 -120 -110 -15 -14 -71 -65 -125 -115 -54 -49 -108 -99 -119
-110 -12 -11 -68 -63 -125 -115 -58 -52 -116 -106 -131 -120 -28 -27 -216
-200 -265 -244 -16 -15 -50 -47 -75 -70 -25 -23 -77 -71 -115 -106 -80 -73
-294 -272 -335 -310 -14 -14 -75 -70 -134 -125 -60 -55 -125 -116 -146 -135
-21 -19 -86 -80 -146 -135 -59 -55 -120 -111 -134 -125 -15 -14 -75 -70 -134
-125 -129 -119 -160 -148 -246 -229 -82 -76 -292 -272 -328 -304 -15 -14 -88
-82 -161 -151 -74 -69 -147 -137 -162 -151 -152 -141 -269 -250 -424 -395 -65
-60 -129 -121 -144 -134 -14 -13 -53 -49 -86 -80 -88 -82 -232 -210 -295 -262
-30 -24 -62 -51 -70 -59 -22 -20 -109 -92 -131 -107 -15 -11 -17 -26 -14 -98
2 -47 6 -185 9 -308 7 -260 14 -508 21 -732 2 -88 7 -268 11 -400 3 -132 8
-283 10 -335 4 -97 9 -837 19 -2535 3 -522 7 -1002 9 -1065 13 -355 20 -491
31 -550 2 -14 7 -49 10 -78 28 -236 139 -365 307 -357 53 3 120 29 149 58 8 7
23 19 35 27 19 13 107 90 189 165 102 94 164 151 275 255 69 65 141 132 160
150 19 18 89 83 155 145 66 62 134 126 150 141 17 15 86 80 155 144 69 65 139
130 155 145 17 15 71 65 121 111 50 47 100 92 111 102 20 17 192 173 223 202
9 8 47 42 85 75 38 33 83 74 101 90 17 17 114 100 215 185 325 275 705 606
774 675 11 11 61 56 110 99 81 71 182 163 345 312 30 27 77 70 104 95 42 37
119 108 186 169 16 15 214 195 236 215 6 6 55 51 109 100 54 50 107 98 119
108 12 10 48 44 81 75 33 32 107 100 165 152 58 52 107 98 110 101 3 3 66 61
140 129 74 68 140 129 146 135 6 5 53 48 104 95 51 47 100 92 109 101 9 8 50
46 91 84 41 37 98 89 125 114 28 26 84 78 125 116 66 61 237 219 335 310 18
17 79 73 135 125 57 52 115 106 130 120 80 74 248 229 276 256 46 43 223 206
259 239 17 16 82 76 145 135 63 59 129 119 145 135 48 43 236 218 265 245 15
14 75 70 134 125 60 55 125 116 146 135 21 19 87 80 146 135 102 94 177 165
319 297 33 31 76 71 95 88 19 18 85 79 145 135 61 57 120 112 131 122 12 10
77 70 145 134 68 64 138 130 155 145 46 43 241 224 284 264 21 19 84 78 141
131 57 53 120 112 140 130 20 19 87 81 149 139 62 58 134 125 161 150 95 90
262 245 280 261 10 9 77 71 149 139 72 68 139 130 149 139 10 9 73 68 141 131
68 63 138 129 155 145 18 17 83 77 145 135 62 58 127 119 145 135 17 17 83 78
146 137 63 58 128 118 144 133 17 15 59 55 95 89 36 33 123 115 194 181 71 66
148 138 171 160 73 69 309 292 340 321 64 59 262 242 322 298 34 32 76 70 94
85 18 14 48 42 68 62 20 19 65 62 101 94 36 31 83 74 105 95 22 20 92 83 155
139 63 57 122 110 130 120 8 9 33 31 55 50 32 27 152 134 209 186 6 6 72 64
146 130 74 66 141 127 150 135 18 17 137 123 220 195 30 27 57 51 60 54 5 6
135 122 209 186 19 17 42 37 51 45 9 8 49 44 90 80 41 35 82 71 91 80 9 8 31
29 50 45 108 95 386 341 395 350 6 6 39 35 74 65 35 30 70 62 79 70 9 9 52 47
96 85 102 90 162 143 197 177 16 15 39 36 53 46 23 18 111 97 228 202 27 25
58 52 67 60 63 55 159 140 189 169 20 18 60 54 89 79 29 25 65 57 80 71 27 25
132 120 257 231 33 30 65 59 71 64 20 20 186 171 208 189 23 20 86 77 187 171
36 34 114 106 174 161 60 55 138 128 174 162 36 33 89 82 116 108 535 501
1041 1005 1378 1375 28 30 66 71 84 91 40 42 39 39 48 204 4 72 8 159 11 195
2 36 6 112 9 170 3 58 7 141 10 185 3 44 7 139 10 210 3 72 8 168 10 214 2 47
7 155 10 240 4 86 8 194 10 241 2 47 7 177 10 290 3 113 8 264 10 335 24 733
24 2438 0 2745 -2 30 -7 96 -10 145 -11 179 -17 259 -30 360 -27 216 -28 224
-45 313 -27 143 -92 212 -209 219 -57 4 -73 1 -121 -23z"/>
<path d="M29990 24432 c-20 -3 -348 -139 -535 -222 -22 -10 -285 -122 -585
-250 -300 -128 -563 -240 -585 -250 -22 -10 -69 -30 -105 -45 -36 -15 -81 -35
-100 -43 -19 -9 -37 -16 -40 -17 -3 0 -27 -11 -54 -23 -27 -12 -50 -22 -52
-22 -2 0 -27 -11 -56 -24 -29 -13 -114 -50 -188 -81 -74 -31 -148 -63 -165
-70 -16 -8 -95 -41 -175 -75 -79 -34 -158 -67 -175 -75 -16 -7 -106 -45 -200
-85 -93 -39 -183 -78 -200 -85 -16 -7 -358 -154 -760 -325 -401 -171 -748
-320 -770 -329 -22 -10 -128 -56 -235 -101 -107 -45 -213 -90 -235 -100 -22
-10 -380 -163 -795 -340 -415 -177 -768 -327 -785 -335 -16 -7 -248 -106 -515
-220 -267 -114 -498 -213 -515 -220 -16 -8 -264 -114 -550 -236 -286 -121
-538 -230 -561 -240 -22 -10 -63 -27 -91 -38 -28 -11 -72 -30 -99 -42 -27 -12
-64 -28 -81 -35 -18 -8 -48 -20 -65 -28 -73 -32 -1313 -561 -1318 -562 -3 0
-27 -11 -55 -23 -45 -20 -135 -59 -190 -82 -11 -4 -45 -19 -75 -32 -31 -14
-94 -40 -140 -60 -47 -19 -112 -47 -145 -62 -72 -32 -46 -20 -340 -145 -132
-56 -253 -108 -270 -116 -16 -7 -201 -85 -410 -174 -209 -89 -399 -170 -422
-181 -24 -10 -45 -19 -48 -19 -2 0 -28 -11 -57 -24 -29 -14 -129 -57 -223 -97
-93 -39 -186 -79 -205 -87 -19 -9 -37 -16 -40 -17 -3 -1 -21 -8 -40 -17 -19
-8 -201 -86 -405 -172 -203 -87 -388 -166 -410 -176 -22 -10 -85 -37 -140 -60
-99 -41 -134 -56 -197 -84 -18 -8 -114 -49 -213 -91 -99 -42 -193 -83 -210
-90 -16 -8 -165 -71 -330 -141 -165 -70 -323 -137 -352 -150 -28 -13 -54 -24
-57 -24 -5 0 -93 -38 -231 -100 -11 -5 -65 -27 -120 -50 -55 -23 -113 -48
-130 -55 -16 -7 -64 -28 -105 -45 -41 -17 -88 -38 -105 -45 -16 -7 -183 -78
-370 -158 -578 -246 -958 -408 -1000 -427 -22 -10 -101 -43 -175 -74 -74 -32
-148 -63 -165 -71 -16 -7 -75 -32 -130 -55 -55 -23 -118 -50 -140 -60 -22 -10
-80 -35 -130 -55 -49 -21 -112 -48 -140 -60 -27 -13 -201 -86 -385 -164 -184
-78 -348 -148 -365 -155 -16 -8 -46 -21 -65 -29 -19 -9 -66 -29 -105 -45 -38
-17 -236 -101 -440 -187 -203 -87 -388 -165 -410 -175 -31 -14 -639 -272 -865
-367 -19 -8 -48 -21 -65 -28 -16 -8 -149 -64 -295 -126 -298 -125 -317 -133
-364 -154 -18 -8 -107 -46 -197 -84 -90 -37 -186 -78 -214 -90 -27 -12 -270
-116 -540 -230 l-490 -208 1 -1749 c0 -1522 6 -2353 19 -2719 5 -142 17 -431
20 -490 7 -114 16 -236 20 -257 3 -12 7 -40 11 -62 17 -115 104 -193 214 -189
64 2 253 69 656 234 16 7 34 13 39 15 6 1 87 34 180 72 94 38 256 104 360 147
105 43 278 113 385 157 107 44 229 93 270 110 41 16 84 33 95 38 86 37 164 69
315 131 96 39 194 80 217 90 23 10 45 19 48 19 3 0 25 9 48 19 23 11 87 37
142 59 55 22 260 106 455 187 195 81 391 162 435 180 121 49 786 325 820 340
28 13 451 189 580 243 146 60 1473 614 1500 626 17 8 167 71 335 141 301 125
496 207 535 225 11 5 162 68 335 141 510 213 588 245 650 272 19 8 107 45 195
82 88 36 174 72 190 80 17 7 530 223 1140 480 611 256 1124 472 1140 480 17 7
91 38 165 70 74 31 153 64 175 74 22 10 73 31 114 47 71 28 117 64 311 238 19
17 76 67 125 111 50 43 95 84 101 90 22 20 140 123 174 151 19 16 40 34 45 40
6 7 53 49 105 95 52 45 111 97 130 114 19 18 60 54 91 81 55 49 182 161 224
199 13 11 36 31 51 45 16 14 67 59 114 99 46 41 97 86 114 100 16 14 34 31 40
37 14 13 122 109 161 143 103 89 373 327 386 340 9 9 47 43 84 76 73 63 223
196 340 300 105 93 426 376 459 405 38 33 126 111 146 130 9 8 45 40 80 70 35
30 72 62 80 70 17 16 144 129 214 190 22 19 47 42 56 50 24 22 141 125 250
221 52 45 100 88 106 93 10 10 95 85 153 135 12 11 55 49 95 84 39 35 96 85
126 112 30 26 62 55 71 64 9 9 40 36 69 60 29 25 58 50 64 56 6 6 108 96 226
200 118 104 217 192 220 195 4 5 177 157 285 251 17 15 98 86 180 159 83 74
183 163 224 199 41 36 93 82 115 102 23 20 66 58 96 85 31 27 89 78 129 114
41 36 82 72 91 80 153 134 605 534 626 555 6 5 40 35 75 65 35 30 88 77 118
104 29 26 67 60 84 75 17 14 38 33 47 41 9 8 49 44 90 80 41 36 77 67 80 70 3
3 41 36 85 75 44 38 82 72 85 75 3 3 140 125 305 270 165 146 316 279 335 296
19 17 62 55 95 84 33 29 74 65 90 79 17 15 75 67 130 115 55 49 133 118 174
155 41 36 83 74 95 84 45 39 153 135 421 372 39 34 95 84 125 110 30 27 60 54
66 59 6 6 40 36 74 66 35 30 68 59 74 65 6 5 47 42 91 80 105 92 145 128 159
140 6 6 94 84 196 174 102 90 214 189 250 221 36 32 133 117 215 190 83 73
166 147 185 164 19 17 75 67 125 110 116 102 235 207 255 226 9 8 49 44 90 80
41 36 77 67 80 70 3 3 43 39 90 80 47 41 90 79 96 85 6 5 98 87 204 180 236
207 276 247 290 291 52 157 -69 302 -230 276z"/>
</g>
</svg>
